<?xml version="1.0" encoding="UTF-8" standalone="no"?>
<!DOCTYPE svg PUBLIC "-//W3C//DTD SVG 1.1//EN"
 "http://www.w3.org/Graphics/SVG/1.1/DTD/svg11.dtd">
<!-- Generated by graphviz version 2.40.1 (20161225.0304)
 -->
<!-- Title: best_image Pages: 1 -->
<svg width="398pt" height="473pt"
 viewBox="0.00 0.00 398.09 472.74" xmlns="http://www.w3.org/2000/svg" xmlns:xlink="http://www.w3.org/1999/xlink">
<g id="graph0" class="graph" transform="scale(1 1) rotate(0) translate(4 468.7401)">
<title>best_image</title>
<polygon fill="#ffffff" stroke="transparent" points="-4,4 -4,-468.7401 394.0894,-468.7401 394.0894,4 -4,4"/>
<!-- does_ring_median_filtered_image_exist -->
<g id="node1" class="node">
<title>does_ring_median_filtered_image_exist</title>
<polygon fill="#dddddd" stroke="#000000" stroke-width="3" points="229.5,-464.7401 95.5,-426.7401 229.5,-388.7401 363.5,-426.7401 229.5,-464.7401"/>
<text text-anchor="middle" x="229.5" y="-430.5401" font-family="Times,serif" font-size="14.00" fill="#000000">Does Ring Median</text>
<text text-anchor="middle" x="229.5" y="-415.5401" font-family="Times,serif" font-size="14.00" fill="#000000">Filtered Image Exist?</text>
</g>
<!-- does_model_subtracted_image_exist -->
<g id="node2" class="node">
<title>does_model_subtracted_image_exist</title>
<polygon fill="#dddddd" stroke="#000000" stroke-width="3" points="229.5,-337.7401 116.5,-284.7401 229.5,-231.7401 342.5,-284.7401 229.5,-337.7401"/>
<text text-anchor="middle" x="229.5" y="-296.0401" font-family="Times,serif" font-size="14.00" fill="#000000">Does Model</text>
<text text-anchor="middle" x="229.5" y="-281.0401" font-family="Times,serif" font-size="14.00" fill="#000000">Subtracted Image</text>
<text text-anchor="middle" x="229.5" y="-266.0401" font-family="Times,serif" font-size="14.00" fill="#000000">Exist?</text>
</g>
<!-- does_ring_median_filtered_image_exist&#45;&gt;does_model_subtracted_image_exist -->
<g id="edge1" class="edge">
<title>does_ring_median_filtered_image_exist&#45;&gt;does_model_subtracted_image_exist</title>
<path fill="none" stroke="#000000" d="M229.5,-388.6867C229.5,-376.1264 229.5,-361.7984 229.5,-347.8786"/>
<polygon fill="#000000" stroke="#000000" points="233.0001,-347.846 229.5,-337.846 226.0001,-347.846 233.0001,-347.846"/>
<text text-anchor="middle" x="240.5" y="-359.5401" font-family="Times,serif" font-size="14.00" fill="#000000">Yes</text>
</g>
<!-- does_best_file_exist -->
<g id="node3" class="node">
<title>does_best_file_exist</title>
<polygon fill="#dddddd" stroke="#000000" stroke-width="3" points="137.5,-180.7401 40.5,-142.7401 137.5,-104.7401 234.5,-142.7401 137.5,-180.7401"/>
<text text-anchor="middle" x="137.5" y="-146.5401" font-family="Times,serif" font-size="14.00" fill="#000000">Does Best File</text>
<text text-anchor="middle" x="137.5" y="-131.5401" font-family="Times,serif" font-size="14.00" fill="#000000">Exist?</text>
</g>
<!-- does_model_subtracted_image_exist&#45;&gt;does_best_file_exist -->
<g id="edge2" class="edge">
<title>does_model_subtracted_image_exist&#45;&gt;does_best_file_exist</title>
<path fill="none" stroke="#000000" d="M203.1365,-244.0486C190.428,-224.4333 175.2578,-201.0185 162.7046,-181.6429"/>
<polygon fill="#000000" stroke="#000000" points="165.5142,-179.5424 157.1393,-173.053 159.6394,-183.3486 165.5142,-179.5424"/>
<text text-anchor="middle" x="194.5" y="-202.5401" font-family="Times,serif" font-size="14.00" fill="#000000">Yes</text>
</g>
<!-- ring_median_filtered_image -->
<g id="node6" class="node">
<title>ring_median_filtered_image</title>
<ellipse fill="#ddffdd" stroke="#000000" stroke-width="3" cx="321.5" cy="-142.7401" rx="68.6788" ry="26.7407"/>
<text text-anchor="middle" x="321.5" y="-146.5401" font-family="Times,serif" font-size="14.00" fill="#000000">Ring Median</text>
<text text-anchor="middle" x="321.5" y="-131.5401" font-family="Times,serif" font-size="14.00" fill="#000000">Filtered Image</text>
</g>
<!-- does_model_subtracted_image_exist&#45;&gt;ring_median_filtered_image -->
<g id="edge5" class="edge">
<title>does_model_subtracted_image_exist&#45;&gt;ring_median_filtered_image</title>
<path fill="none" stroke="#000000" d="M255.8635,-244.0486C269.4618,-223.0599 285.8786,-197.721 298.8919,-177.6352"/>
<polygon fill="#000000" stroke="#000000" points="301.9253,-179.39 304.4254,-169.0944 296.0506,-175.5838 301.9253,-179.39"/>
<text text-anchor="middle" x="293" y="-202.5401" font-family="Times,serif" font-size="14.00" fill="#000000">No</text>
</g>
<!-- indicate_ambiguity_and_abort -->
<g id="node4" class="node">
<title>indicate_ambiguity_and_abort</title>
<polygon fill="#ffffff" stroke="#000000" stroke-width="3" points="123,-45.8701 0,-45.8701 0,-7.8701 123,-7.8701 123,-45.8701"/>
<text text-anchor="middle" x="61.5" y="-30.6701" font-family="Times,serif" font-size="14.00" fill="#000000">Indicate Ambiguity</text>
<text text-anchor="middle" x="61.5" y="-15.6701" font-family="Times,serif" font-size="14.00" fill="#000000">and Abort</text>
</g>
<!-- does_best_file_exist&#45;&gt;indicate_ambiguity_and_abort -->
<g id="edge3" class="edge">
<title>does_best_file_exist&#45;&gt;indicate_ambiguity_and_abort</title>
<path fill="none" stroke="#000000" d="M117.5319,-112.2966C105.8471,-94.4819 91.2011,-72.1525 79.8136,-54.791"/>
<polygon fill="#000000" stroke="#000000" points="82.5998,-52.6574 74.1886,-46.2152 76.7466,-56.4966 82.5998,-52.6574"/>
<text text-anchor="middle" x="108" y="-75.5401" font-family="Times,serif" font-size="14.00" fill="#000000">No</text>
</g>
<!-- image_listed_in_best_file -->
<g id="node5" class="node">
<title>image_listed_in_best_file</title>
<ellipse fill="#ddffdd" stroke="#000000" stroke-width="3" cx="213.5" cy="-26.8701" rx="72.6644" ry="26.7407"/>
<text text-anchor="middle" x="213.5" y="-30.6701" font-family="Times,serif" font-size="14.00" fill="#000000">Image Listed in</text>
<text text-anchor="middle" x="213.5" y="-15.6701" font-family="Times,serif" font-size="14.00" fill="#000000">Best File</text>
</g>
<!-- does_best_file_exist&#45;&gt;image_listed_in_best_file -->
<g id="edge4" class="edge">
<title>does_best_file_exist&#45;&gt;image_listed_in_best_file</title>
<path fill="none" stroke="#000000" d="M157.4681,-112.2966C167.6356,-96.7952 180.0452,-77.8754 190.5992,-61.7848"/>
<polygon fill="#000000" stroke="#000000" points="193.6875,-63.4578 196.2455,-53.1763 187.8343,-59.6185 193.6875,-63.4578"/>
<text text-anchor="middle" x="193.5" y="-75.5401" font-family="Times,serif" font-size="14.00" fill="#000000">Yes</text>
</g>
</g>
</svg>
