<?xml version="1.0" encoding="UTF-8" standalone="no"?>
<!DOCTYPE svg PUBLIC "-//W3C//DTD SVG 1.1//EN"
 "http://www.w3.org/Graphics/SVG/1.1/DTD/svg11.dtd">
<!-- Generated by graphviz version 2.40.1 (20161225.0304)
 -->
<!-- Title: isophote_fitting Pages: 1 -->
<svg width="453pt" height="593pt"
 viewBox="0.00 0.00 452.90 592.74" xmlns="http://www.w3.org/2000/svg" xmlns:xlink="http://www.w3.org/1999/xlink">
<g id="graph0" class="graph" transform="scale(1 1) rotate(0) translate(4 588.7401)">
<title>isophote_fitting</title>
<polygon fill="#ffffff" stroke="transparent" points="-4,4 -4,-588.7401 448.895,-588.7401 448.895,4 -4,4"/>
<!-- original_image -->
<g id="node1" class="node">
<title>original_image</title>
<ellipse fill="#ffdddd" stroke="#000000" stroke-width="3" cx="145" cy="-557.8701" rx="43.6818" ry="26.7407"/>
<text text-anchor="middle" x="145" y="-561.6701" font-family="Times,serif" font-size="14.00" fill="#000000">Original</text>
<text text-anchor="middle" x="145" y="-546.6701" font-family="Times,serif" font-size="14.00" fill="#000000">Image</text>
</g>
<!-- fit_isophotes -->
<g id="node4" class="node">
<title>fit_isophotes</title>
<polygon fill="#ffffff" stroke="#000000" stroke-width="3" points="295,-494 227,-494 227,-456 295,-456 295,-494"/>
<text text-anchor="middle" x="261" y="-478.8" font-family="Times,serif" font-size="14.00" fill="#000000">Fit</text>
<text text-anchor="middle" x="261" y="-463.8" font-family="Times,serif" font-size="14.00" fill="#000000">Isophotes</text>
</g>
<!-- original_image&#45;&gt;fit_isophotes -->
<g id="edge1" class="edge">
<title>original_image&#45;&gt;fit_isophotes</title>
<path fill="none" stroke="#000000" d="M173.6742,-537.3853C189.4428,-526.1203 209.1359,-512.0515 225.8277,-500.127"/>
<polygon fill="#000000" stroke="#000000" points="228.1438,-502.7738 234.2462,-494.1129 224.0747,-497.078 228.1438,-502.7738"/>
</g>
<!-- geometric_parameters -->
<g id="node2" class="node">
<title>geometric_parameters</title>
<ellipse fill="#ffdddd" stroke="#000000" stroke-width="3" cx="261" cy="-557.8701" rx="54.3945" ry="26.7407"/>
<text text-anchor="middle" x="261" y="-561.6701" font-family="Times,serif" font-size="14.00" fill="#000000">Geometric</text>
<text text-anchor="middle" x="261" y="-546.6701" font-family="Times,serif" font-size="14.00" fill="#000000">Parameters</text>
</g>
<!-- geometric_parameters&#45;&gt;fit_isophotes -->
<g id="edge2" class="edge">
<title>geometric_parameters&#45;&gt;fit_isophotes</title>
<path fill="none" stroke="#000000" stroke-dasharray="5,2" d="M261,-530.7353C261,-522.2113 261,-512.767 261,-504.1119"/>
<polygon fill="#000000" stroke="#000000" points="264.5001,-504.0608 261,-494.0608 257.5001,-504.0609 264.5001,-504.0608"/>
</g>
<!-- mask_image -->
<g id="node3" class="node">
<title>mask_image</title>
<ellipse fill="#ffdddd" stroke="#000000" stroke-width="3" cx="389" cy="-557.8701" rx="55.7903" ry="18"/>
<text text-anchor="middle" x="389" y="-554.1701" font-family="Times,serif" font-size="14.00" fill="#000000">Mask Image</text>
</g>
<!-- mask_image&#45;&gt;fit_isophotes -->
<g id="edge3" class="edge">
<title>mask_image&#45;&gt;fit_isophotes</title>
<path fill="none" stroke="#000000" stroke-dasharray="5,2" d="M364.0165,-541.6952C345.4726,-529.6894 319.8618,-513.1085 298.8158,-499.4828"/>
<polygon fill="#000000" stroke="#000000" points="300.7037,-496.5356 290.4072,-494.0389 296.8994,-502.4116 300.7037,-496.5356"/>
</g>
<!-- object_location_successful -->
<g id="node5" class="node">
<title>object_location_successful</title>
<polygon fill="#dddddd" stroke="#000000" stroke-width="3" points="129,-419 25,-381 129,-343 233,-381 129,-419"/>
<text text-anchor="middle" x="129" y="-384.8" font-family="Times,serif" font-size="14.00" fill="#000000">Object Location</text>
<text text-anchor="middle" x="129" y="-369.8" font-family="Times,serif" font-size="14.00" fill="#000000">Successful?</text>
</g>
<!-- fit_isophotes&#45;&gt;object_location_successful -->
<g id="edge4" class="edge">
<title>fit_isophotes&#45;&gt;object_location_successful</title>
<path fill="none" stroke="#000000" d="M234.2878,-455.9777C216.6757,-443.4357 193.195,-426.7146 172.8773,-412.2459"/>
<polygon fill="#000000" stroke="#000000" points="174.859,-409.3604 164.683,-406.4107 170.7985,-415.0624 174.859,-409.3604"/>
</g>
<!-- decrease_object_locator_threshold -->
<g id="node6" class="node">
<title>decrease_object_locator_threshold</title>
<polygon fill="#ffffff" stroke="#000000" stroke-width="3" points="295.5,-273 178.5,-273 178.5,-235 295.5,-235 295.5,-273"/>
<text text-anchor="middle" x="237" y="-257.8" font-family="Times,serif" font-size="14.00" fill="#000000">Decrease Object</text>
<text text-anchor="middle" x="237" y="-242.8" font-family="Times,serif" font-size="14.00" fill="#000000">Locator Threshold</text>
</g>
<!-- object_location_successful&#45;&gt;decrease_object_locator_threshold -->
<g id="edge5" class="edge">
<title>object_location_successful&#45;&gt;decrease_object_locator_threshold</title>
<path fill="none" stroke="#000000" d="M153.7774,-351.8636C171.9201,-330.5291 196.3607,-301.7888 214.0582,-280.9778"/>
<polygon fill="#000000" stroke="#000000" points="216.907,-283.0306 220.7189,-273.1453 211.5744,-278.4959 216.907,-283.0306"/>
<text text-anchor="middle" x="195.5" y="-313.8" font-family="Times,serif" font-size="14.00" fill="#000000">No</text>
</g>
<!-- fitting_successful -->
<g id="node7" class="node">
<title>fitting_successful</title>
<polygon fill="#dddddd" stroke="#000000" stroke-width="3" points="80,-292 0,-254 80,-216 160,-254 80,-292"/>
<text text-anchor="middle" x="80" y="-257.8" font-family="Times,serif" font-size="14.00" fill="#000000">Fitting</text>
<text text-anchor="middle" x="80" y="-242.8" font-family="Times,serif" font-size="14.00" fill="#000000">Successful?</text>
</g>
<!-- object_location_successful&#45;&gt;fitting_successful -->
<g id="edge7" class="edge">
<title>object_location_successful&#45;&gt;fitting_successful</title>
<path fill="none" stroke="#000000" d="M116.1258,-347.6322C110.0104,-331.7821 102.6369,-312.6712 96.1504,-295.8592"/>
<polygon fill="#000000" stroke="#000000" points="99.315,-294.3379 92.4499,-286.2681 92.7842,-296.8577 99.315,-294.3379"/>
<text text-anchor="middle" x="117" y="-313.8" font-family="Times,serif" font-size="14.00" fill="#000000">Yes</text>
</g>
<!-- decrease_object_locator_threshold&#45;&gt;fit_isophotes -->
<g id="edge6" class="edge">
<title>decrease_object_locator_threshold&#45;&gt;fit_isophotes</title>
<path fill="none" stroke="#000000" d="M239.0659,-273.0239C243.26,-311.6444 252.7981,-399.4744 257.8014,-445.5459"/>
<polygon fill="#000000" stroke="#000000" points="254.3529,-446.2107 258.9121,-455.7743 261.312,-445.4549 254.3529,-446.2107"/>
</g>
<!-- at_minimum_harmonics -->
<g id="node8" class="node">
<title>at_minimum_harmonics</title>
<polygon fill="#dddddd" stroke="#000000" stroke-width="3" points="206,-165 116,-127 206,-89 296,-127 206,-165"/>
<text text-anchor="middle" x="206" y="-130.8" font-family="Times,serif" font-size="14.00" fill="#000000">At Minimum</text>
<text text-anchor="middle" x="206" y="-115.8" font-family="Times,serif" font-size="14.00" fill="#000000">Harmonics?</text>
</g>
<!-- fitting_successful&#45;&gt;at_minimum_harmonics -->
<g id="edge8" class="edge">
<title>fitting_successful&#45;&gt;at_minimum_harmonics</title>
<path fill="none" stroke="#000000" d="M105.802,-227.9932C124.9945,-208.6484 151.3629,-182.0707 172.2324,-161.0356"/>
<polygon fill="#000000" stroke="#000000" points="174.8056,-163.4114 179.3641,-153.8473 169.8363,-158.4812 174.8056,-163.4114"/>
<text text-anchor="middle" x="155.5" y="-186.8" font-family="Times,serif" font-size="14.00" fill="#000000">No</text>
</g>
<!-- isophote_table -->
<g id="node11" class="node">
<title>isophote_table</title>
<ellipse fill="#ddffdd" stroke="#000000" stroke-width="3" cx="53" cy="-127" rx="44.5955" ry="26.7407"/>
<text text-anchor="middle" x="53" y="-130.8" font-family="Times,serif" font-size="14.00" fill="#000000">Isophote</text>
<text text-anchor="middle" x="53" y="-115.8" font-family="Times,serif" font-size="14.00" fill="#000000">Table</text>
</g>
<!-- fitting_successful&#45;&gt;isophote_table -->
<g id="edge12" class="edge">
<title>fitting_successful&#45;&gt;isophote_table</title>
<path fill="none" stroke="#000000" d="M72.6221,-219.2967C68.9676,-202.1067 64.5536,-181.3446 60.8383,-163.8689"/>
<polygon fill="#000000" stroke="#000000" points="64.2456,-163.0647 58.7425,-154.0111 57.3986,-164.5204 64.2456,-163.0647"/>
<text text-anchor="middle" x="79" y="-186.8" font-family="Times,serif" font-size="14.00" fill="#000000">Yes</text>
</g>
<!-- decrease_harmonics -->
<g id="node9" class="node">
<title>decrease_harmonics</title>
<polygon fill="#ffffff" stroke="#000000" stroke-width="3" points="345.5,-38 268.5,-38 268.5,0 345.5,0 345.5,-38"/>
<text text-anchor="middle" x="307" y="-22.8" font-family="Times,serif" font-size="14.00" fill="#000000">Decrease</text>
<text text-anchor="middle" x="307" y="-7.8" font-family="Times,serif" font-size="14.00" fill="#000000">Harmonics</text>
</g>
<!-- at_minimum_harmonics&#45;&gt;decrease_harmonics -->
<g id="edge9" class="edge">
<title>at_minimum_harmonics&#45;&gt;decrease_harmonics</title>
<path fill="none" stroke="#000000" d="M231.4866,-99.747C246.9545,-83.2071 266.6109,-62.1883 281.9914,-45.7419"/>
<polygon fill="#000000" stroke="#000000" points="284.8871,-47.7696 289.1612,-38.0751 279.7744,-42.9883 284.8871,-47.7696"/>
<text text-anchor="middle" x="280.5" y="-59.8" font-family="Times,serif" font-size="14.00" fill="#000000">No</text>
</g>
<!-- abort -->
<g id="node10" class="node">
<title>abort</title>
<polygon fill="#ffffff" stroke="#000000" stroke-width="3" points="233,-37 179,-37 179,-1 233,-1 233,-37"/>
<text text-anchor="middle" x="206" y="-15.3" font-family="Times,serif" font-size="14.00" fill="#000000">Abort</text>
</g>
<!-- at_minimum_harmonics&#45;&gt;abort -->
<g id="edge11" class="edge">
<title>at_minimum_harmonics&#45;&gt;abort</title>
<path fill="none" stroke="#000000" d="M206,-88.9232C206,-75.1641 206,-59.8902 206,-47.1363"/>
<polygon fill="#000000" stroke="#000000" points="209.5001,-47.1043 206,-37.1043 202.5001,-47.1044 209.5001,-47.1043"/>
<text text-anchor="middle" x="217" y="-59.8" font-family="Times,serif" font-size="14.00" fill="#000000">Yes</text>
</g>
<!-- decrease_harmonics&#45;&gt;fit_isophotes -->
<g id="edge10" class="edge">
<title>decrease_harmonics&#45;&gt;fit_isophotes</title>
<path fill="none" stroke="#000000" d="M311.9171,-38.3661C316.9379,-59.8691 324,-95.6816 324,-127 324,-381 324,-381 324,-381 324,-406.8955 307.2978,-431.0449 291.0931,-448.3811"/>
<polygon fill="#000000" stroke="#000000" points="288.2638,-446.2662 283.7444,-455.8488 293.2532,-451.176 288.2638,-446.2662"/>
</g>
</g>
</svg>
