<?xml version="1.0" encoding="UTF-8" standalone="no"?>
<!DOCTYPE svg PUBLIC "-//W3C//DTD SVG 1.1//EN"
 "http://www.w3.org/Graphics/SVG/1.1/DTD/svg11.dtd">
<!-- Generated by graphviz version 2.40.1 (20161225.0304)
 -->
<!-- Title: model_image_creation Pages: 1 -->
<svg width="435pt" height="593pt"
 viewBox="0.00 0.00 434.50 592.74" xmlns="http://www.w3.org/2000/svg" xmlns:xlink="http://www.w3.org/1999/xlink">
<g id="graph0" class="graph" transform="scale(1 1) rotate(0) translate(4 588.7401)">
<title>model_image_creation</title>
<polygon fill="#ffffff" stroke="transparent" points="-4,4 -4,-588.7401 430.5,-588.7401 430.5,4 -4,4"/>
<!-- isophote_table -->
<g id="node1" class="node">
<title>isophote_table</title>
<ellipse fill="#ffdddd" stroke="#000000" stroke-width="3" cx="322" cy="-557.8701" rx="44.5955" ry="26.7407"/>
<text text-anchor="middle" x="322" y="-561.6701" font-family="Times,serif" font-size="14.00" fill="#000000">Isophote</text>
<text text-anchor="middle" x="322" y="-546.6701" font-family="Times,serif" font-size="14.00" fill="#000000">Table</text>
</g>
<!-- start_model_creation -->
<g id="node2" class="node">
<title>start_model_creation</title>
<polygon fill="#ffffff" stroke="#000000" stroke-width="3" points="363,-494 281,-494 281,-456 363,-456 363,-494"/>
<text text-anchor="middle" x="322" y="-478.8" font-family="Times,serif" font-size="14.00" fill="#000000">Start Model</text>
<text text-anchor="middle" x="322" y="-463.8" font-family="Times,serif" font-size="14.00" fill="#000000">Creation</text>
</g>
<!-- isophote_table&#45;&gt;start_model_creation -->
<g id="edge1" class="edge">
<title>isophote_table&#45;&gt;start_model_creation</title>
<path fill="none" stroke="#000000" d="M322,-530.7353C322,-522.2113 322,-512.767 322,-504.1119"/>
<polygon fill="#000000" stroke="#000000" points="325.5001,-504.0608 322,-494.0608 318.5001,-504.0609 325.5001,-504.0608"/>
</g>
<!-- model_creation_hung -->
<g id="node3" class="node">
<title>model_creation_hung</title>
<polygon fill="#dddddd" stroke="#000000" stroke-width="3" points="257,-419 154,-381 257,-343 360,-381 257,-419"/>
<text text-anchor="middle" x="257" y="-384.8" font-family="Times,serif" font-size="14.00" fill="#000000">Model Creation</text>
<text text-anchor="middle" x="257" y="-369.8" font-family="Times,serif" font-size="14.00" fill="#000000">Hung?</text>
</g>
<!-- start_model_creation&#45;&gt;model_creation_hung -->
<g id="edge2" class="edge">
<title>start_model_creation&#45;&gt;model_creation_hung</title>
<path fill="none" stroke="#000000" d="M308.8463,-455.9777C301.6728,-445.6038 292.5223,-432.3707 283.9114,-419.918"/>
<polygon fill="#000000" stroke="#000000" points="286.6335,-417.7008 278.0672,-411.4664 280.876,-421.6821 286.6335,-417.7008"/>
</g>
<!-- kill_model_creation_task -->
<g id="node4" class="node">
<title>kill_model_creation_task</title>
<polygon fill="#ffffff" stroke="#000000" stroke-width="3" points="317.5,-273 224.5,-273 224.5,-235 317.5,-235 317.5,-273"/>
<text text-anchor="middle" x="271" y="-257.8" font-family="Times,serif" font-size="14.00" fill="#000000">Kill Model</text>
<text text-anchor="middle" x="271" y="-242.8" font-family="Times,serif" font-size="14.00" fill="#000000">Creation Task</text>
</g>
<!-- model_creation_hung&#45;&gt;kill_model_creation_task -->
<g id="edge3" class="edge">
<title>model_creation_hung&#45;&gt;kill_model_creation_task</title>
<path fill="none" stroke="#000000" d="M261.0494,-344.2663C263.1961,-324.7924 265.796,-301.2075 267.7999,-283.0298"/>
<polygon fill="#000000" stroke="#000000" points="271.286,-283.3472 268.9029,-273.0239 264.3281,-282.5802 271.286,-283.3472"/>
<text text-anchor="middle" x="275" y="-313.8" font-family="Times,serif" font-size="14.00" fill="#000000">Yes</text>
</g>
<!-- model_creation_crashed -->
<g id="node5" class="node">
<title>model_creation_crashed</title>
<polygon fill="#dddddd" stroke="#000000" stroke-width="3" points="103,-292 0,-254 103,-216 206,-254 103,-292"/>
<text text-anchor="middle" x="103" y="-257.8" font-family="Times,serif" font-size="14.00" fill="#000000">Model Creation</text>
<text text-anchor="middle" x="103" y="-242.8" font-family="Times,serif" font-size="14.00" fill="#000000">Crashed?</text>
</g>
<!-- model_creation_hung&#45;&gt;model_creation_crashed -->
<g id="edge4" class="edge">
<title>model_creation_hung&#45;&gt;model_creation_crashed</title>
<path fill="none" stroke="#000000" d="M225.0911,-354.6855C201.242,-335.0177 168.4822,-308.0015 142.901,-286.9053"/>
<polygon fill="#000000" stroke="#000000" points="144.8098,-283.9429 134.868,-280.2808 140.3562,-289.3434 144.8098,-283.9429"/>
<text text-anchor="middle" x="192.5" y="-313.8" font-family="Times,serif" font-size="14.00" fill="#000000">No</text>
</g>
<!-- using_higher_harmonics -->
<g id="node6" class="node">
<title>using_higher_harmonics</title>
<polygon fill="#dddddd" stroke="#000000" stroke-width="3" points="270,-165 180,-127 270,-89 360,-127 270,-165"/>
<text text-anchor="middle" x="270" y="-130.8" font-family="Times,serif" font-size="14.00" fill="#000000">Using Higher</text>
<text text-anchor="middle" x="270" y="-115.8" font-family="Times,serif" font-size="14.00" fill="#000000">Harmonics?</text>
</g>
<!-- kill_model_creation_task&#45;&gt;using_higher_harmonics -->
<g id="edge5" class="edge">
<title>kill_model_creation_task&#45;&gt;using_higher_harmonics</title>
<path fill="none" stroke="#000000" d="M270.8503,-234.9868C270.7257,-219.1689 270.5429,-195.9497 270.3787,-175.0912"/>
<polygon fill="#000000" stroke="#000000" points="273.8786,-175.0561 270.2999,-165.084 266.8788,-175.1113 273.8786,-175.0561"/>
</g>
<!-- model_creation_crashed&#45;&gt;using_higher_harmonics -->
<g id="edge6" class="edge">
<title>model_creation_crashed&#45;&gt;using_higher_harmonics</title>
<path fill="none" stroke="#000000" d="M136.7949,-228.2997C163.5993,-207.9155 201.1478,-179.3606 229.5496,-157.7617"/>
<polygon fill="#000000" stroke="#000000" points="231.8328,-160.4225 237.6739,-151.5833 227.5955,-154.8507 231.8328,-160.4225"/>
<text text-anchor="middle" x="202" y="-186.8" font-family="Times,serif" font-size="14.00" fill="#000000">Yes</text>
</g>
<!-- model_image -->
<g id="node9" class="node">
<title>model_image</title>
<ellipse fill="#ddffdd" stroke="#000000" stroke-width="3" cx="103" cy="-127" rx="59.2899" ry="18"/>
<text text-anchor="middle" x="103" y="-123.3" font-family="Times,serif" font-size="14.00" fill="#000000">Model Image</text>
</g>
<!-- model_creation_crashed&#45;&gt;model_image -->
<g id="edge10" class="edge">
<title>model_creation_crashed&#45;&gt;model_image</title>
<path fill="none" stroke="#000000" d="M103,-215.8958C103,-196.4426 103,-173.1822 103,-155.3349"/>
<polygon fill="#000000" stroke="#000000" points="106.5001,-155.2635 103,-145.2636 99.5001,-155.2636 106.5001,-155.2635"/>
<text text-anchor="middle" x="111.5" y="-186.8" font-family="Times,serif" font-size="14.00" fill="#000000">No</text>
</g>
<!-- disable_higher_harmonics -->
<g id="node7" class="node">
<title>disable_higher_harmonics</title>
<polygon fill="#ffffff" stroke="#000000" stroke-width="3" points="426.5,-38 327.5,-38 327.5,0 426.5,0 426.5,-38"/>
<text text-anchor="middle" x="377" y="-22.8" font-family="Times,serif" font-size="14.00" fill="#000000">Disable Higher</text>
<text text-anchor="middle" x="377" y="-7.8" font-family="Times,serif" font-size="14.00" fill="#000000">Harmonics</text>
</g>
<!-- using_higher_harmonics&#45;&gt;disable_higher_harmonics -->
<g id="edge7" class="edge">
<title>using_higher_harmonics&#45;&gt;disable_higher_harmonics</title>
<path fill="none" stroke="#000000" d="M296.7246,-100.0256C313.2576,-83.3381 334.3871,-62.0112 350.8181,-45.4266"/>
<polygon fill="#000000" stroke="#000000" points="353.4517,-47.7413 358.0035,-38.1741 348.479,-42.8146 353.4517,-47.7413"/>
<text text-anchor="middle" x="350" y="-59.8" font-family="Times,serif" font-size="14.00" fill="#000000">Yes</text>
</g>
<!-- abort -->
<g id="node8" class="node">
<title>abort</title>
<polygon fill="#ffffff" stroke="#000000" stroke-width="3" points="297,-37 243,-37 243,-1 297,-1 297,-37"/>
<text text-anchor="middle" x="270" y="-15.3" font-family="Times,serif" font-size="14.00" fill="#000000">Abort</text>
</g>
<!-- using_higher_harmonics&#45;&gt;abort -->
<g id="edge9" class="edge">
<title>using_higher_harmonics&#45;&gt;abort</title>
<path fill="none" stroke="#000000" d="M270,-88.9232C270,-75.1641 270,-59.8902 270,-47.1363"/>
<polygon fill="#000000" stroke="#000000" points="273.5001,-47.1043 270,-37.1043 266.5001,-47.1044 273.5001,-47.1043"/>
<text text-anchor="middle" x="278.5" y="-59.8" font-family="Times,serif" font-size="14.00" fill="#000000">No</text>
</g>
<!-- disable_higher_harmonics&#45;&gt;start_model_creation -->
<g id="edge8" class="edge">
<title>disable_higher_harmonics&#45;&gt;start_model_creation</title>
<path fill="none" stroke="#000000" d="M380.1227,-38.0591C383.3748,-59.5911 388,-95.714 388,-127 388,-381 388,-381 388,-381 388,-407.3462 370.4194,-431.5362 353.4053,-448.7778"/>
<polygon fill="#000000" stroke="#000000" points="350.9681,-446.2658 346.2012,-455.7276 355.8282,-451.3036 350.9681,-446.2658"/>
</g>
</g>
</svg>
