<?xml version="1.0" encoding="UTF-8" standalone="no"?>
<!DOCTYPE svg PUBLIC "-//W3C//DTD SVG 1.1//EN"
 "http://www.w3.org/Graphics/SVG/1.1/DTD/svg11.dtd">
<!-- Generated by graphviz version 2.40.1 (20161225.0304)
 -->
<!-- Title: sextractor_masking Pages: 1 -->
<svg width="362pt" height="813pt"
 viewBox="0.00 0.00 362.03 812.96" xmlns="http://www.w3.org/2000/svg" xmlns:xlink="http://www.w3.org/1999/xlink">
<g id="graph0" class="graph" transform="scale(1 1) rotate(0) translate(4 808.9605)">
<title>sextractor_masking</title>
<polygon fill="#ffffff" stroke="transparent" points="-4,4 -4,-808.9605 358.0332,-808.9605 358.0332,4 -4,4"/>
<!-- subtracted_image -->
<g id="node1" class="node">
<title>subtracted_image</title>
<ellipse fill="#ffdddd" stroke="#000000" stroke-width="3" cx="213.5332" cy="-778.0904" rx="52.1524" ry="26.7407"/>
<text text-anchor="middle" x="213.5332" y="-781.8904" font-family="Times,serif" font-size="14.00" fill="#000000">Subtracted</text>
<text text-anchor="middle" x="213.5332" y="-766.8904" font-family="Times,serif" font-size="14.00" fill="#000000">Image</text>
</g>
<!-- run_sextractor -->
<g id="node4" class="node">
<title>run_sextractor</title>
<polygon fill="#ffffff" stroke="#000000" stroke-width="3" points="250.5332,-714.2203 176.5332,-714.2203 176.5332,-676.2203 250.5332,-676.2203 250.5332,-714.2203"/>
<text text-anchor="middle" x="213.5332" y="-699.0203" font-family="Times,serif" font-size="14.00" fill="#000000">Run</text>
<text text-anchor="middle" x="213.5332" y="-684.0203" font-family="Times,serif" font-size="14.00" fill="#000000">SExtractor</text>
</g>
<!-- subtracted_image&#45;&gt;run_sextractor -->
<g id="edge1" class="edge">
<title>subtracted_image&#45;&gt;run_sextractor</title>
<path fill="none" stroke="#000000" d="M213.5332,-750.9556C213.5332,-742.4317 213.5332,-732.9873 213.5332,-724.3322"/>
<polygon fill="#000000" stroke="#000000" points="217.0333,-724.2811 213.5332,-714.2812 210.0333,-724.2812 217.0333,-724.2811"/>
</g>
<!-- isophote_table -->
<g id="node2" class="node">
<title>isophote_table</title>
<ellipse fill="#ffdddd" stroke="#000000" stroke-width="3" cx="241.5332" cy="-612.3503" rx="44.5955" ry="26.7407"/>
<text text-anchor="middle" x="241.5332" y="-616.1503" font-family="Times,serif" font-size="14.00" fill="#000000">Isophote</text>
<text text-anchor="middle" x="241.5332" y="-601.1503" font-family="Times,serif" font-size="14.00" fill="#000000">Table</text>
</g>
<!-- excessive_mask_check -->
<g id="node6" class="node">
<title>excessive_mask_check</title>
<polygon fill="#ffffff" stroke="#000000" stroke-width="3" points="266.0332,-548.4802 161.0332,-548.4802 161.0332,-510.4802 266.0332,-510.4802 266.0332,-548.4802"/>
<text text-anchor="middle" x="213.5332" y="-533.2802" font-family="Times,serif" font-size="14.00" fill="#000000">Excessive Mask</text>
<text text-anchor="middle" x="213.5332" y="-518.2802" font-family="Times,serif" font-size="14.00" fill="#000000">Check</text>
</g>
<!-- isophote_table&#45;&gt;excessive_mask_check -->
<g id="edge3" class="edge">
<title>isophote_table&#45;&gt;excessive_mask_check</title>
<path fill="none" stroke="#000000" stroke-dasharray="5,2" d="M232.5197,-585.6735C229.5461,-576.8728 226.2273,-567.0504 223.2066,-558.11"/>
<polygon fill="#000000" stroke="#000000" points="226.4739,-556.8458 219.957,-548.4923 219.8422,-559.0865 226.4739,-556.8458"/>
</g>
<!-- flag_image -->
<g id="node3" class="node">
<title>flag_image</title>
<ellipse fill="#ffdddd" stroke="#000000" stroke-width="3" cx="67.5332" cy="-435.4802" rx="51.1914" ry="18"/>
<text text-anchor="middle" x="67.5332" y="-431.7802" font-family="Times,serif" font-size="14.00" fill="#000000">Flag Image</text>
</g>
<!-- combine_masks -->
<g id="node11" class="node">
<title>combine_masks</title>
<polygon fill="#ffffff" stroke="#000000" stroke-width="3" points="94.0332,-327.4802 27.0332,-327.4802 27.0332,-289.4802 94.0332,-289.4802 94.0332,-327.4802"/>
<text text-anchor="middle" x="60.5332" y="-312.2802" font-family="Times,serif" font-size="14.00" fill="#000000">Combine</text>
<text text-anchor="middle" x="60.5332" y="-297.2802" font-family="Times,serif" font-size="14.00" fill="#000000">Masks</text>
</g>
<!-- flag_image&#45;&gt;combine_masks -->
<g id="edge11" class="edge">
<title>flag_image&#45;&gt;combine_masks</title>
<path fill="none" stroke="#000000" stroke-dasharray="5,2" d="M66.5303,-417.2842C65.3909,-396.6122 63.5147,-362.5741 62.1641,-338.0699"/>
<polygon fill="#000000" stroke="#000000" points="65.6483,-337.6841 61.6031,-327.8919 58.6589,-338.0694 65.6483,-337.6841"/>
</g>
<!-- segmentation_image -->
<g id="node5" class="node">
<title>segmentation_image</title>
<ellipse fill="#ffffdd" stroke="#000000" stroke-width="3" cx="113.5332" cy="-612.3503" rx="65.1077" ry="26.7407"/>
<text text-anchor="middle" x="113.5332" y="-616.1503" font-family="Times,serif" font-size="14.00" fill="#000000">Segmentation</text>
<text text-anchor="middle" x="113.5332" y="-601.1503" font-family="Times,serif" font-size="14.00" fill="#000000">Image</text>
</g>
<!-- run_sextractor&#45;&gt;segmentation_image -->
<g id="edge2" class="edge">
<title>run_sextractor&#45;&gt;segmentation_image</title>
<path fill="none" stroke="#000000" d="M190.3398,-676C178.5858,-666.2594 164.0257,-654.1935 150.7534,-643.1947"/>
<polygon fill="#000000" stroke="#000000" points="152.6255,-640.2005 142.6925,-636.5146 148.159,-645.5904 152.6255,-640.2005"/>
</g>
<!-- segmentation_image&#45;&gt;excessive_mask_check -->
<g id="edge4" class="edge">
<title>segmentation_image&#45;&gt;excessive_mask_check</title>
<path fill="none" stroke="#000000" d="M142.7262,-588.1581C155.2108,-577.812 169.8019,-565.7203 182.484,-555.2107"/>
<polygon fill="#000000" stroke="#000000" points="185.0345,-557.6428 190.5009,-548.5671 180.5679,-552.253 185.0345,-557.6428"/>
</g>
<!-- segmentation_image&#45;&gt;combine_masks -->
<g id="edge12" class="edge">
<title>segmentation_image&#45;&gt;combine_masks</title>
<path fill="none" stroke="#000000" stroke-dasharray="5,2" d="M86.5503,-587.8057C60.5949,-562.2059 23.0738,-519.453 7.5332,-473.4802 -3.2837,-441.4813 -1.4293,-430.0473 7.5332,-397.4802 13.7096,-375.037 27.1895,-352.5365 39.0084,-335.7742"/>
<polygon fill="#000000" stroke="#000000" points="41.9313,-337.706 44.9901,-327.5623 36.2732,-333.5846 41.9313,-337.706"/>
</g>
<!-- masking_excessive -->
<g id="node7" class="node">
<title>masking_excessive</title>
<polygon fill="#dddddd" stroke="#000000" stroke-width="3" points="213.5332,-473.4802 136.5332,-435.4802 213.5332,-397.4802 290.5332,-435.4802 213.5332,-473.4802"/>
<text text-anchor="middle" x="213.5332" y="-439.2802" font-family="Times,serif" font-size="14.00" fill="#000000">Masking</text>
<text text-anchor="middle" x="213.5332" y="-424.2802" font-family="Times,serif" font-size="14.00" fill="#000000">Excessive?</text>
</g>
<!-- excessive_mask_check&#45;&gt;masking_excessive -->
<g id="edge5" class="edge">
<title>excessive_mask_check&#45;&gt;masking_excessive</title>
<path fill="none" stroke="#000000" d="M213.5332,-510.4579C213.5332,-502.6574 213.5332,-493.2402 213.5332,-483.7538"/>
<polygon fill="#000000" stroke="#000000" points="217.0333,-483.5061 213.5332,-473.5062 210.0333,-483.5062 217.0333,-483.5061"/>
</g>
<!-- max_threshold_reached -->
<g id="node8" class="node">
<title>max_threshold_reached</title>
<polygon fill="#dddddd" stroke="#000000" stroke-width="3" points="213.5332,-346.4802 112.5332,-308.4802 213.5332,-270.4802 314.5332,-308.4802 213.5332,-346.4802"/>
<text text-anchor="middle" x="213.5332" y="-312.2802" font-family="Times,serif" font-size="14.00" fill="#000000">Max Threshold</text>
<text text-anchor="middle" x="213.5332" y="-297.2802" font-family="Times,serif" font-size="14.00" fill="#000000">Reached?</text>
</g>
<!-- masking_excessive&#45;&gt;max_threshold_reached -->
<g id="edge6" class="edge">
<title>masking_excessive&#45;&gt;max_threshold_reached</title>
<path fill="none" stroke="#000000" d="M213.5332,-397.376C213.5332,-384.5671 213.5332,-370.1075 213.5332,-356.6294"/>
<polygon fill="#000000" stroke="#000000" points="217.0333,-356.5575 213.5332,-346.5575 210.0333,-356.5576 217.0333,-356.5575"/>
<text text-anchor="middle" x="224.5332" y="-368.2802" font-family="Times,serif" font-size="14.00" fill="#000000">Yes</text>
</g>
<!-- masking_excessive&#45;&gt;combine_masks -->
<g id="edge10" class="edge">
<title>masking_excessive&#45;&gt;combine_masks</title>
<path fill="none" stroke="#000000" d="M183.835,-412.0259C161.5351,-394.2764 130.3554,-369.1643 103.5332,-346.4802 98.9524,-342.6061 94.1473,-338.452 89.477,-334.3639"/>
<polygon fill="#000000" stroke="#000000" points="91.625,-331.5917 81.8078,-327.6075 86.9976,-336.8442 91.625,-331.5917"/>
<text text-anchor="middle" x="151.0332" y="-368.2802" font-family="Times,serif" font-size="14.00" fill="#000000">No</text>
</g>
<!-- abort -->
<g id="node9" class="node">
<title>abort</title>
<polygon fill="#ffffff" stroke="#000000" stroke-width="3" points="240.5332,-210.6102 186.5332,-210.6102 186.5332,-174.6102 240.5332,-174.6102 240.5332,-210.6102"/>
<text text-anchor="middle" x="213.5332" y="-188.9102" font-family="Times,serif" font-size="14.00" fill="#000000">Abort</text>
</g>
<!-- max_threshold_reached&#45;&gt;abort -->
<g id="edge7" class="edge">
<title>max_threshold_reached&#45;&gt;abort</title>
<path fill="none" stroke="#000000" d="M213.5332,-270.2189C213.5332,-254.0936 213.5332,-235.6608 213.5332,-220.8065"/>
<polygon fill="#000000" stroke="#000000" points="217.0333,-220.7069 213.5332,-210.7069 210.0333,-220.7069 217.0333,-220.7069"/>
<text text-anchor="middle" x="224.5332" y="-241.2802" font-family="Times,serif" font-size="14.00" fill="#000000">Yes</text>
</g>
<!-- increase_threshold -->
<g id="node10" class="node">
<title>increase_threshold</title>
<polygon fill="#ffffff" stroke="#000000" stroke-width="3" points="354.0332,-211.6102 283.0332,-211.6102 283.0332,-173.6102 354.0332,-173.6102 354.0332,-211.6102"/>
<text text-anchor="middle" x="318.5332" y="-196.4102" font-family="Times,serif" font-size="14.00" fill="#000000">Increase</text>
<text text-anchor="middle" x="318.5332" y="-181.4102" font-family="Times,serif" font-size="14.00" fill="#000000">Threshold</text>
</g>
<!-- max_threshold_reached&#45;&gt;increase_threshold -->
<g id="edge8" class="edge">
<title>max_threshold_reached&#45;&gt;increase_threshold</title>
<path fill="none" stroke="#000000" d="M239.2191,-280.1352C255.8564,-261.7756 277.4046,-237.9965 293.8412,-219.8584"/>
<polygon fill="#000000" stroke="#000000" points="296.8759,-221.7218 300.9974,-211.9614 291.6888,-217.0213 296.8759,-221.7218"/>
<text text-anchor="middle" x="283.0332" y="-241.2802" font-family="Times,serif" font-size="14.00" fill="#000000">No</text>
</g>
<!-- increase_threshold&#45;&gt;run_sextractor -->
<g id="edge9" class="edge">
<title>increase_threshold&#45;&gt;run_sextractor</title>
<path fill="none" stroke="#000000" d="M324.9647,-211.632C332.0738,-234.3858 342.5332,-273.762 342.5332,-308.4802 342.5332,-612.3503 342.5332,-612.3503 342.5332,-612.3503 342.5332,-652.6685 297.3753,-674.287 260.4957,-685.2196"/>
<polygon fill="#000000" stroke="#000000" points="259.5438,-681.8515 250.8453,-687.9003 261.4173,-688.5961 259.5438,-681.8515"/>
</g>
<!-- combined_mask -->
<g id="node12" class="node">
<title>combined_mask</title>
<ellipse fill="#ffffdd" stroke="#000000" stroke-width="3" cx="60.5332" cy="-192.6102" rx="52.1524" ry="26.7407"/>
<text text-anchor="middle" x="60.5332" y="-196.4102" font-family="Times,serif" font-size="14.00" fill="#000000">Combined</text>
<text text-anchor="middle" x="60.5332" y="-181.4102" font-family="Times,serif" font-size="14.00" fill="#000000">Mask</text>
</g>
<!-- combine_masks&#45;&gt;combined_mask -->
<g id="edge13" class="edge">
<title>combine_masks&#45;&gt;combined_mask</title>
<path fill="none" stroke="#000000" d="M60.5332,-289.3466C60.5332,-273.2189 60.5332,-249.6667 60.5332,-229.8399"/>
<polygon fill="#000000" stroke="#000000" points="64.0333,-229.5755 60.5332,-219.5755 57.0333,-229.5756 64.0333,-229.5755"/>
</g>
<!-- convert_to_pixel_list -->
<g id="node13" class="node">
<title>convert_to_pixel_list</title>
<polygon fill="#ffffff" stroke="#000000" stroke-width="3" points="97.5332,-128.7401 23.5332,-128.7401 23.5332,-90.7401 97.5332,-90.7401 97.5332,-128.7401"/>
<text text-anchor="middle" x="60.5332" y="-113.5401" font-family="Times,serif" font-size="14.00" fill="#000000">Convert to</text>
<text text-anchor="middle" x="60.5332" y="-98.5401" font-family="Times,serif" font-size="14.00" fill="#000000">Pixel List</text>
</g>
<!-- combined_mask&#45;&gt;convert_to_pixel_list -->
<g id="edge14" class="edge">
<title>combined_mask&#45;&gt;convert_to_pixel_list</title>
<path fill="none" stroke="#000000" d="M60.5332,-165.4754C60.5332,-156.9514 60.5332,-147.5071 60.5332,-138.852"/>
<polygon fill="#000000" stroke="#000000" points="64.0333,-138.8009 60.5332,-128.8009 57.0333,-138.801 64.0333,-138.8009"/>
</g>
<!-- mask_pixel_list -->
<g id="node14" class="node">
<title>mask_pixel_list</title>
<ellipse fill="#ddffdd" stroke="#000000" stroke-width="3" cx="60.5332" cy="-26.8701" rx="55.7232" ry="26.7407"/>
<text text-anchor="middle" x="60.5332" y="-30.6701" font-family="Times,serif" font-size="14.00" fill="#000000">Mask Pixel</text>
<text text-anchor="middle" x="60.5332" y="-15.6701" font-family="Times,serif" font-size="14.00" fill="#000000">List</text>
</g>
<!-- convert_to_pixel_list&#45;&gt;mask_pixel_list -->
<g id="edge15" class="edge">
<title>convert_to_pixel_list&#45;&gt;mask_pixel_list</title>
<path fill="none" stroke="#000000" d="M60.5332,-90.5198C60.5332,-82.5991 60.5332,-73.1408 60.5332,-63.9691"/>
<polygon fill="#000000" stroke="#000000" points="64.0333,-63.8328 60.5332,-53.8329 57.0333,-63.8329 64.0333,-63.8328"/>
</g>
</g>
</svg>
