<?xml version="1.0" encoding="UTF-8" standalone="no"?>
<!DOCTYPE svg PUBLIC "-//W3C//DTD SVG 1.1//EN"
 "http://www.w3.org/Graphics/SVG/1.1/DTD/svg11.dtd">
<!-- Generated by graphviz version 2.40.1 (20161225.0304)
 -->
<!-- Title: subtraction_pipeline Pages: 1 -->
<svg width="461pt" height="1709pt"
 viewBox="0.00 0.00 461.00 1708.66" xmlns="http://www.w3.org/2000/svg" xmlns:xlink="http://www.w3.org/1999/xlink">
<g id="graph0" class="graph" transform="scale(1 1) rotate(0) translate(4 1704.661)">
<title>subtraction_pipeline</title>
<polygon fill="#ffffff" stroke="transparent" points="-4,4 -4,-1704.661 457,-1704.661 457,4 -4,4"/>
<g id="clust1" class="cluster">
<title>cluster_original_image</title>
<polygon fill="none" stroke="#000000" stroke-dasharray="1,5" points="8,-1433.1808 8,-1525.9209 112,-1525.9209 112,-1433.1808 8,-1433.1808"/>
<text text-anchor="middle" x="60" y="-1510.7209" font-family="Times,serif" font-size="14.00" fill="#000000">Original Image</text>
</g>
<g id="clust2" class="cluster">
<title>cluster_masking_1</title>
<polygon fill="none" stroke="#000000" stroke-dasharray="1,5" points="133,-1442.0509 133,-1683.791 251,-1683.791 251,-1442.0509 133,-1442.0509"/>
<text text-anchor="middle" x="192" y="-1668.591" font-family="Times,serif" font-size="14.00" fill="#000000">Masking 1</text>
</g>
<g id="clust3" class="cluster">
<title>cluster_geometric_parameters_query</title>
<polygon fill="none" stroke="#000000" stroke-dasharray="1,5" points="269,-1433.1808 269,-1692.661 445,-1692.661 445,-1433.1808 269,-1433.1808"/>
<text text-anchor="middle" x="357" y="-1677.461" font-family="Times,serif" font-size="14.00" fill="#000000">Geometric Parameters Query</text>
</g>
<g id="clust4" class="cluster">
<title>cluster_pass_1</title>
<polygon fill="none" stroke="#000000" stroke-dasharray="1,5" points="66,-880.9605 66,-1425.1808 285,-1425.1808 285,-880.9605 66,-880.9605"/>
<text text-anchor="middle" x="175.5" y="-1409.9808" font-family="Times,serif" font-size="14.00" fill="#000000">Pass 1</text>
</g>
<g id="clust5" class="cluster">
<title>cluster_isophote_fitting_1</title>
<polygon fill="none" stroke="#000000" stroke-dasharray="1,5" points="133,-1227.4407 133,-1394.1808 246,-1394.1808 246,-1227.4407 133,-1227.4407"/>
<text text-anchor="middle" x="189.5" y="-1378.9808" font-family="Times,serif" font-size="14.00" fill="#000000">Isophote Fitting 1</text>
</g>
<g id="clust6" class="cluster">
<title>cluster_model_creation_subtraction_1</title>
<polygon fill="none" stroke="#000000" stroke-dasharray="1,5" points="74,-888.9605 74,-1219.4407 277,-1219.4407 277,-888.9605 74,-888.9605"/>
<text text-anchor="middle" x="175.5" y="-1204.2407" font-family="Times,serif" font-size="14.00" fill="#000000">Model Creation and Subtraction 1</text>
</g>
<g id="clust7" class="cluster">
<title>cluster_masking_2</title>
<polygon fill="none" stroke="#000000" stroke-dasharray="1,5" points="118,-560.2203 118,-872.9605 248,-872.9605 248,-560.2203 118,-560.2203"/>
<text text-anchor="middle" x="183" y="-857.7605" font-family="Times,serif" font-size="14.00" fill="#000000">Masking 2</text>
</g>
<g id="clust8" class="cluster">
<title>cluster_pass_2</title>
<polygon fill="none" stroke="#000000" stroke-dasharray="1,5" points="9,-8 9,-552.2203 228,-552.2203 228,-8 9,-8"/>
<text text-anchor="middle" x="118.5" y="-537.0203" font-family="Times,serif" font-size="14.00" fill="#000000">Pass 2</text>
</g>
<g id="clust9" class="cluster">
<title>cluster_isophote_fitting_2</title>
<polygon fill="none" stroke="#000000" stroke-dasharray="1,5" points="94,-354.4802 94,-521.2203 207,-521.2203 207,-354.4802 94,-354.4802"/>
<text text-anchor="middle" x="150.5" y="-506.0203" font-family="Times,serif" font-size="14.00" fill="#000000">Isophote Fitting 2</text>
</g>
<g id="clust10" class="cluster">
<title>cluster_model_creation_subtraction_2</title>
<polygon fill="none" stroke="#000000" stroke-dasharray="1,5" points="17,-16 17,-346.4802 220,-346.4802 220,-16 17,-16"/>
<text text-anchor="middle" x="118.5" y="-331.2802" font-family="Times,serif" font-size="14.00" fill="#000000">Model Creation and Subtraction 2</text>
</g>
<!-- flag_image -->
<g id="node1" class="node">
<title>flag_image</title>
<ellipse fill="#ffdddd" stroke="#000000" stroke-width="3" cx="192" cy="-1634.791" rx="51.1914" ry="18"/>
<text text-anchor="middle" x="192" y="-1631.091" font-family="Times,serif" font-size="14.00" fill="#000000">Flag Image</text>
</g>
<!-- flag_image_conversion -->
<g id="node4" class="node">
<title>flag_image_conversion</title>
<polygon fill="#ffffff" stroke="#000000" stroke-width="3" points="231.5,-1571.9209 152.5,-1571.9209 152.5,-1533.9209 231.5,-1533.9209 231.5,-1571.9209"/>
<text text-anchor="middle" x="192" y="-1556.7209" font-family="Times,serif" font-size="14.00" fill="#000000">Flag Image</text>
<text text-anchor="middle" x="192" y="-1541.7209" font-family="Times,serif" font-size="14.00" fill="#000000">Conversion</text>
</g>
<!-- flag_image&#45;&gt;flag_image_conversion -->
<g id="edge1" class="edge">
<title>flag_image&#45;&gt;flag_image_conversion</title>
<path fill="none" stroke="#000000" d="M192,-1616.6214C192,-1606.5225 192,-1593.713 192,-1582.2333"/>
<polygon fill="#000000" stroke="#000000" points="195.5001,-1582.1804 192,-1572.1805 188.5001,-1582.1805 195.5001,-1582.1804"/>
</g>
<!-- original_image -->
<g id="node2" class="node">
<title>original_image</title>
<ellipse fill="#ffdddd" stroke="#000000" stroke-width="3" cx="60" cy="-1468.0509" rx="43.6818" ry="26.7407"/>
<text text-anchor="middle" x="60" y="-1471.8509" font-family="Times,serif" font-size="14.00" fill="#000000">Original</text>
<text text-anchor="middle" x="60" y="-1456.8509" font-family="Times,serif" font-size="14.00" fill="#000000">Image</text>
</g>
<!-- isophote_fitting_1 -->
<g id="node8" class="node">
<title>isophote_fitting_1</title>
<polygon fill="#ffffff" stroke="#000000" stroke-width="3" points="221.5,-1363.1808 158.5,-1363.1808 158.5,-1325.1808 221.5,-1325.1808 221.5,-1363.1808"/>
<text text-anchor="middle" x="190" y="-1347.9808" font-family="Times,serif" font-size="14.00" fill="#000000">Isophote</text>
<text text-anchor="middle" x="190" y="-1332.9808" font-family="Times,serif" font-size="14.00" fill="#000000">Fitting 1</text>
</g>
<!-- original_image&#45;&gt;isophote_fitting_1 -->
<g id="edge5" class="edge">
<title>original_image&#45;&gt;isophote_fitting_1</title>
<path fill="none" stroke="#000000" d="M83.844,-1445.3312C105.9716,-1424.247 138.9091,-1392.8626 162.2173,-1370.6534"/>
<polygon fill="#000000" stroke="#000000" points="164.8979,-1372.9337 169.7232,-1363.5015 160.069,-1367.8659 164.8979,-1372.9337"/>
</g>
<!-- model_subtraction_1 -->
<g id="node12" class="node">
<title>model_subtraction_1</title>
<polygon fill="#ffffff" stroke="#000000" stroke-width="3" points="227.5,-1024.7006 138.5,-1024.7006 138.5,-986.7006 227.5,-986.7006 227.5,-1024.7006"/>
<text text-anchor="middle" x="183" y="-1009.5006" font-family="Times,serif" font-size="14.00" fill="#000000">Model</text>
<text text-anchor="middle" x="183" y="-994.5006" font-family="Times,serif" font-size="14.00" fill="#000000">Subtraction 1</text>
</g>
<!-- original_image&#45;&gt;model_subtraction_1 -->
<g id="edge12" class="edge">
<title>original_image&#45;&gt;model_subtraction_1</title>
<path fill="none" stroke="#000000" stroke-dasharray="5,2" d="M66.6503,-1441.2845C75.7591,-1402.2126 91,-1327.1497 91,-1262.3107 91,-1262.3107 91,-1262.3107 91,-1169.4407 91,-1120.2188 86.2203,-1102.6316 112,-1060.7006 119.1583,-1049.0575 129.7387,-1038.9395 140.5585,-1030.6671"/>
<polygon fill="#000000" stroke="#000000" points="142.7616,-1033.3936 148.8263,-1024.7063 138.6678,-1027.7154 142.7616,-1033.3936"/>
</g>
<!-- isophote_fitting_2 -->
<g id="node18" class="node">
<title>isophote_fitting_2</title>
<polygon fill="#ffffff" stroke="#000000" stroke-width="3" points="190.5,-490.2203 127.5,-490.2203 127.5,-452.2203 190.5,-452.2203 190.5,-490.2203"/>
<text text-anchor="middle" x="159" y="-475.0203" font-family="Times,serif" font-size="14.00" fill="#000000">Isophote</text>
<text text-anchor="middle" x="159" y="-460.0203" font-family="Times,serif" font-size="14.00" fill="#000000">Fitting 2</text>
</g>
<!-- original_image&#45;&gt;isophote_fitting_2 -->
<g id="edge19" class="edge">
<title>original_image&#45;&gt;isophote_fitting_2</title>
<path fill="none" stroke="#000000" d="M57.4257,-1441.1198C53.8997,-1401.8452 48,-1326.5349 48,-1262.3107 48,-1262.3107 48,-1262.3107 48,-676.9605 48,-605.647 100.2926,-535.3033 133.0936,-498.1943"/>
<polygon fill="#000000" stroke="#000000" points="136.0652,-500.126 140.1704,-490.3588 130.8703,-495.4342 136.0652,-500.126"/>
</g>
<!-- model_subtraction_2 -->
<g id="node22" class="node">
<title>model_subtraction_2</title>
<polygon fill="#ffffff" stroke="#000000" stroke-width="3" points="152.5,-151.7401 63.5,-151.7401 63.5,-113.7401 152.5,-113.7401 152.5,-151.7401"/>
<text text-anchor="middle" x="108" y="-136.5401" font-family="Times,serif" font-size="14.00" fill="#000000">Model</text>
<text text-anchor="middle" x="108" y="-121.5401" font-family="Times,serif" font-size="14.00" fill="#000000">Subtraction 2</text>
</g>
<!-- original_image&#45;&gt;model_subtraction_2 -->
<g id="edge26" class="edge">
<title>original_image&#45;&gt;model_subtraction_2</title>
<path fill="none" stroke="#000000" stroke-dasharray="5,2" d="M49.3963,-1441.913C34.7192,-1403.3111 10,-1328.4759 10,-1262.3107 10,-1262.3107 10,-1262.3107 10,-296.4802 10,-246.4621 11.6213,-229.5996 39,-187.7401 46.4171,-176.4001 56.9462,-166.3303 67.5513,-158.0069"/>
<polygon fill="#000000" stroke="#000000" points="69.6983,-160.7719 75.6256,-151.9902 65.5157,-155.1589 69.6983,-160.7719"/>
</g>
<!-- galaxy_catalog -->
<g id="node3" class="node">
<title>galaxy_catalog</title>
<ellipse fill="#ffdddd" stroke="#000000" stroke-width="3" cx="340" cy="-1634.791" rx="41.9398" ry="26.7407"/>
<text text-anchor="middle" x="340" y="-1638.591" font-family="Times,serif" font-size="14.00" fill="#000000">Galaxy</text>
<text text-anchor="middle" x="340" y="-1623.591" font-family="Times,serif" font-size="14.00" fill="#000000">Catalog</text>
</g>
<!-- geometric_parameters_query -->
<g id="node6" class="node">
<title>geometric_parameters_query</title>
<polygon fill="#ffffff" stroke="#000000" stroke-width="3" points="397.5,-1571.9209 282.5,-1571.9209 282.5,-1533.9209 397.5,-1533.9209 397.5,-1571.9209"/>
<text text-anchor="middle" x="340" y="-1556.7209" font-family="Times,serif" font-size="14.00" fill="#000000">Geometric</text>
<text text-anchor="middle" x="340" y="-1541.7209" font-family="Times,serif" font-size="14.00" fill="#000000">Parameters Query</text>
</g>
<!-- galaxy_catalog&#45;&gt;geometric_parameters_query -->
<g id="edge3" class="edge">
<title>galaxy_catalog&#45;&gt;geometric_parameters_query</title>
<path fill="none" stroke="#000000" d="M340,-1607.5294C340,-1599.3528 340,-1590.3539 340,-1582.0611"/>
<polygon fill="#000000" stroke="#000000" points="343.5001,-1582.0496 340,-1572.0496 336.5001,-1582.0496 343.5001,-1582.0496"/>
</g>
<!-- flag_mask -->
<g id="node5" class="node">
<title>flag_mask</title>
<ellipse fill="#ffffdd" stroke="#000000" stroke-width="3" cx="192" cy="-1468.0509" rx="48.9926" ry="18"/>
<text text-anchor="middle" x="192" y="-1464.3509" font-family="Times,serif" font-size="14.00" fill="#000000">Flag Mask</text>
</g>
<!-- flag_image_conversion&#45;&gt;flag_mask -->
<g id="edge2" class="edge">
<title>flag_image_conversion&#45;&gt;flag_mask</title>
<path fill="none" stroke="#000000" d="M192,-1533.6626C192,-1522.6173 192,-1508.5501 192,-1496.276"/>
<polygon fill="#000000" stroke="#000000" points="195.5001,-1496.0723 192,-1486.0723 188.5001,-1496.0724 195.5001,-1496.0723"/>
</g>
<!-- flag_mask&#45;&gt;isophote_fitting_1 -->
<g id="edge6" class="edge">
<title>flag_mask&#45;&gt;isophote_fitting_1</title>
<path fill="none" stroke="#000000" stroke-dasharray="5,2" d="M191.7092,-1450.0391C191.386,-1430.0224 190.8592,-1397.395 190.4758,-1373.647"/>
<polygon fill="#000000" stroke="#000000" points="193.972,-1373.3799 190.3109,-1363.4378 186.9729,-1373.493 193.972,-1373.3799"/>
</g>
<!-- mask_combination -->
<g id="node16" class="node">
<title>mask_combination</title>
<polygon fill="#ffffff" stroke="#000000" stroke-width="3" points="227,-695.9605 139,-695.9605 139,-657.9605 227,-657.9605 227,-695.9605"/>
<text text-anchor="middle" x="183" y="-680.7605" font-family="Times,serif" font-size="14.00" fill="#000000">Mask</text>
<text text-anchor="middle" x="183" y="-665.7605" font-family="Times,serif" font-size="14.00" fill="#000000">Combination</text>
</g>
<!-- flag_mask&#45;&gt;mask_combination -->
<g id="edge16" class="edge">
<title>flag_mask&#45;&gt;mask_combination</title>
<path fill="none" stroke="#000000" stroke-dasharray="5,2" d="M219.2193,-1453.0278C230.1063,-1445.8418 241.9473,-1436.3552 250,-1425.1808 294.505,-1363.4232 303,-1338.4337 303,-1262.3107 303,-1262.3107 303,-1262.3107 303,-822.9605 303,-771.0191 257.1108,-727.4862 222.0876,-701.8253"/>
<polygon fill="#000000" stroke="#000000" points="224.0804,-698.9477 213.903,-696.0031 220.0228,-704.6517 224.0804,-698.9477"/>
</g>
<!-- geometric_parameters -->
<g id="node7" class="node">
<title>geometric_parameters</title>
<ellipse fill="#ffffdd" stroke="#000000" stroke-width="3" cx="340" cy="-1468.0509" rx="54.3945" ry="26.7407"/>
<text text-anchor="middle" x="340" y="-1471.8509" font-family="Times,serif" font-size="14.00" fill="#000000">Geometric</text>
<text text-anchor="middle" x="340" y="-1456.8509" font-family="Times,serif" font-size="14.00" fill="#000000">Parameters</text>
</g>
<!-- geometric_parameters_query&#45;&gt;geometric_parameters -->
<g id="edge4" class="edge">
<title>geometric_parameters_query&#45;&gt;geometric_parameters</title>
<path fill="none" stroke="#000000" d="M340,-1533.6626C340,-1525.1689 340,-1514.8882 340,-1505.01"/>
<polygon fill="#000000" stroke="#000000" points="343.5001,-1504.9534 340,-1494.9535 336.5001,-1504.9535 343.5001,-1504.9534"/>
</g>
<!-- geometric_parameters&#45;&gt;isophote_fitting_1 -->
<g id="edge7" class="edge">
<title>geometric_parameters&#45;&gt;isophote_fitting_1</title>
<path fill="none" stroke="#000000" stroke-dasharray="5,2" d="M311.7861,-1444.7519C285.9445,-1423.4118 247.7645,-1391.8828 221.0623,-1369.8321"/>
<polygon fill="#000000" stroke="#000000" points="223.1096,-1366.9836 213.1703,-1363.3148 218.6524,-1372.3811 223.1096,-1366.9836"/>
</g>
<!-- geometric_parameters&#45;&gt;isophote_fitting_2 -->
<g id="edge21" class="edge">
<title>geometric_parameters&#45;&gt;isophote_fitting_2</title>
<path fill="none" stroke="#000000" stroke-dasharray="5,2" d="M340.2145,-1441.0908C340.5084,-1401.7805 341,-1326.4267 341,-1262.3107 341,-1262.3107 341,-1262.3107 341,-676.9605 341,-592.0335 252.9254,-525.7021 199.3141,-493.1926"/>
<polygon fill="#000000" stroke="#000000" points="201.0876,-490.1753 190.702,-488.0803 197.5144,-496.1946 201.0876,-490.1753"/>
</g>
<!-- isophote_table_1 -->
<g id="node9" class="node">
<title>isophote_table_1</title>
<ellipse fill="#ffffdd" stroke="#000000" stroke-width="3" cx="190" cy="-1262.3107" rx="44.5955" ry="26.7407"/>
<text text-anchor="middle" x="190" y="-1266.1107" font-family="Times,serif" font-size="14.00" fill="#000000">Isophote</text>
<text text-anchor="middle" x="190" y="-1251.1107" font-family="Times,serif" font-size="14.00" fill="#000000">Table 1</text>
</g>
<!-- isophote_fitting_1&#45;&gt;isophote_table_1 -->
<g id="edge8" class="edge">
<title>isophote_fitting_1&#45;&gt;isophote_table_1</title>
<path fill="none" stroke="#000000" d="M190,-1324.7787C190,-1317.1658 190,-1308.1638 190,-1299.3991"/>
<polygon fill="#000000" stroke="#000000" points="193.5001,-1299.3165 190,-1289.3166 186.5001,-1299.3166 193.5001,-1299.3165"/>
</g>
<!-- model_creation_1 -->
<g id="node10" class="node">
<title>model_creation_1</title>
<polygon fill="#ffffff" stroke="#000000" stroke-width="3" points="223,-1188.4407 149,-1188.4407 149,-1150.4407 223,-1150.4407 223,-1188.4407"/>
<text text-anchor="middle" x="186" y="-1173.2407" font-family="Times,serif" font-size="14.00" fill="#000000">Model</text>
<text text-anchor="middle" x="186" y="-1158.2407" font-family="Times,serif" font-size="14.00" fill="#000000">Creation 1</text>
</g>
<!-- isophote_table_1&#45;&gt;model_creation_1 -->
<g id="edge9" class="edge">
<title>isophote_table_1&#45;&gt;model_creation_1</title>
<path fill="none" stroke="#000000" d="M188.843,-1235.4489C188.3484,-1223.9647 187.7696,-1210.5255 187.2637,-1198.7817"/>
<polygon fill="#000000" stroke="#000000" points="190.7514,-1198.4179 186.8243,-1188.5779 183.7579,-1198.7192 190.7514,-1198.4179"/>
</g>
<!-- model_image_1 -->
<g id="node11" class="node">
<title>model_image_1</title>
<ellipse fill="#ffffdd" stroke="#000000" stroke-width="3" cx="185" cy="-1087.5706" rx="64.1938" ry="26.7407"/>
<text text-anchor="middle" x="185" y="-1091.3706" font-family="Times,serif" font-size="14.00" fill="#000000">Model Image</text>
<text text-anchor="middle" x="185" y="-1076.3706" font-family="Times,serif" font-size="14.00" fill="#000000">1</text>
</g>
<!-- model_creation_1&#45;&gt;model_image_1 -->
<g id="edge10" class="edge">
<title>model_creation_1&#45;&gt;model_image_1</title>
<path fill="none" stroke="#000000" d="M185.763,-1150.0386C185.67,-1142.4257 185.5601,-1133.4237 185.453,-1124.659"/>
<polygon fill="#000000" stroke="#000000" points="188.9518,-1124.5329 185.3299,-1114.5765 181.9524,-1124.6185 188.9518,-1124.5329"/>
</g>
<!-- model_image_1&#45;&gt;model_subtraction_1 -->
<g id="edge11" class="edge">
<title>model_image_1&#45;&gt;model_subtraction_1</title>
<path fill="none" stroke="#000000" d="M184.334,-1060.3091C184.1343,-1052.1325 183.9144,-1043.1336 183.7119,-1034.8408"/>
<polygon fill="#000000" stroke="#000000" points="187.2106,-1034.7408 183.4673,-1024.8293 180.2127,-1034.9118 187.2106,-1034.7408"/>
</g>
<!-- model_subtracted_image_1 -->
<g id="node13" class="node">
<title>model_subtracted_image_1</title>
<ellipse fill="#ddffdd" stroke="#000000" stroke-width="3" cx="183" cy="-923.8305" rx="80.7205" ry="26.7407"/>
<text text-anchor="middle" x="183" y="-927.6305" font-family="Times,serif" font-size="14.00" fill="#000000">Model Subtracted</text>
<text text-anchor="middle" x="183" y="-912.6305" font-family="Times,serif" font-size="14.00" fill="#000000">Image 1</text>
</g>
<!-- model_subtraction_1&#45;&gt;model_subtracted_image_1 -->
<g id="edge13" class="edge">
<title>model_subtraction_1&#45;&gt;model_subtracted_image_1</title>
<path fill="none" stroke="#000000" d="M183,-986.2985C183,-978.6856 183,-969.6836 183,-960.9189"/>
<polygon fill="#000000" stroke="#000000" points="186.5001,-960.8363 183,-950.8363 179.5001,-960.8364 186.5001,-960.8363"/>
</g>
<!-- object_detection -->
<g id="node14" class="node">
<title>object_detection</title>
<polygon fill="#ffffff" stroke="#000000" stroke-width="3" points="217.5,-841.9605 148.5,-841.9605 148.5,-803.9605 217.5,-803.9605 217.5,-841.9605"/>
<text text-anchor="middle" x="183" y="-826.7605" font-family="Times,serif" font-size="14.00" fill="#000000">Object</text>
<text text-anchor="middle" x="183" y="-811.7605" font-family="Times,serif" font-size="14.00" fill="#000000">Detection</text>
</g>
<!-- model_subtracted_image_1&#45;&gt;object_detection -->
<g id="edge14" class="edge">
<title>model_subtracted_image_1&#45;&gt;object_detection</title>
<path fill="none" stroke="#000000" d="M183,-896.7992C183,-883.0342 183,-866.2806 183,-852.2136"/>
<polygon fill="#000000" stroke="#000000" points="186.5001,-852.0742 183,-842.0742 179.5001,-852.0742 186.5001,-852.0742"/>
</g>
<!-- object_mask -->
<g id="node15" class="node">
<title>object_mask</title>
<ellipse fill="#ffffdd" stroke="#000000" stroke-width="3" cx="183" cy="-749.9605" rx="56.59" ry="18"/>
<text text-anchor="middle" x="183" y="-746.2605" font-family="Times,serif" font-size="14.00" fill="#000000">Object Mask</text>
</g>
<!-- object_detection&#45;&gt;object_mask -->
<g id="edge15" class="edge">
<title>object_detection&#45;&gt;object_mask</title>
<path fill="none" stroke="#000000" d="M183,-803.7806C183,-796.0579 183,-786.9887 183,-778.519"/>
<polygon fill="#000000" stroke="#000000" points="186.5001,-778.2578 183,-768.2578 179.5001,-778.2578 186.5001,-778.2578"/>
</g>
<!-- object_mask&#45;&gt;mask_combination -->
<g id="edge17" class="edge">
<title>object_mask&#45;&gt;mask_combination</title>
<path fill="none" stroke="#000000" d="M183,-731.9155C183,-724.1712 183,-714.9227 183,-706.2416"/>
<polygon fill="#000000" stroke="#000000" points="186.5001,-706.0733 183,-696.0733 179.5001,-706.0733 186.5001,-706.0733"/>
</g>
<!-- combined_mask -->
<g id="node17" class="node">
<title>combined_mask</title>
<ellipse fill="#ffffdd" stroke="#000000" stroke-width="3" cx="181" cy="-595.0904" rx="52.1524" ry="26.7407"/>
<text text-anchor="middle" x="181" y="-598.8904" font-family="Times,serif" font-size="14.00" fill="#000000">Combined</text>
<text text-anchor="middle" x="181" y="-583.8904" font-family="Times,serif" font-size="14.00" fill="#000000">Mask</text>
</g>
<!-- mask_combination&#45;&gt;combined_mask -->
<g id="edge18" class="edge">
<title>mask_combination&#45;&gt;combined_mask</title>
<path fill="none" stroke="#000000" d="M182.526,-657.5584C182.3401,-649.9455 182.1201,-640.9435 181.906,-632.1788"/>
<polygon fill="#000000" stroke="#000000" points="185.403,-632.0077 181.6597,-622.0962 178.4051,-632.1788 185.403,-632.0077"/>
</g>
<!-- combined_mask&#45;&gt;isophote_fitting_2 -->
<g id="edge20" class="edge">
<title>combined_mask&#45;&gt;isophote_fitting_2</title>
<path fill="none" stroke="#000000" stroke-dasharray="5,2" d="M176.2263,-568.2124C172.675,-548.2169 167.8327,-520.9523 164.1863,-500.4217"/>
<polygon fill="#000000" stroke="#000000" points="167.5965,-499.6073 162.4017,-490.3734 160.7044,-500.8314 167.5965,-499.6073"/>
</g>
<!-- isophote_table_2 -->
<g id="node19" class="node">
<title>isophote_table_2</title>
<ellipse fill="#ffffdd" stroke="#000000" stroke-width="3" cx="151" cy="-389.3503" rx="44.5955" ry="26.7407"/>
<text text-anchor="middle" x="151" y="-393.1503" font-family="Times,serif" font-size="14.00" fill="#000000">Isophote</text>
<text text-anchor="middle" x="151" y="-378.1503" font-family="Times,serif" font-size="14.00" fill="#000000">Table 2</text>
</g>
<!-- isophote_fitting_2&#45;&gt;isophote_table_2 -->
<g id="edge22" class="edge">
<title>isophote_fitting_2&#45;&gt;isophote_table_2</title>
<path fill="none" stroke="#000000" d="M157.1041,-451.8183C156.3602,-444.2053 155.4806,-435.2034 154.6241,-426.4387"/>
<polygon fill="#000000" stroke="#000000" points="158.0949,-425.9683 153.6389,-416.3561 151.1281,-426.6491 158.0949,-425.9683"/>
</g>
<!-- model_creation_2 -->
<g id="node20" class="node">
<title>model_creation_2</title>
<polygon fill="#ffffff" stroke="#000000" stroke-width="3" points="161,-315.4802 87,-315.4802 87,-277.4802 161,-277.4802 161,-315.4802"/>
<text text-anchor="middle" x="124" y="-300.2802" font-family="Times,serif" font-size="14.00" fill="#000000">Model</text>
<text text-anchor="middle" x="124" y="-285.2802" font-family="Times,serif" font-size="14.00" fill="#000000">Creation 2</text>
</g>
<!-- isophote_table_2&#45;&gt;model_creation_2 -->
<g id="edge23" class="edge">
<title>isophote_table_2&#45;&gt;model_creation_2</title>
<path fill="none" stroke="#000000" d="M143.1905,-362.4884C139.8176,-350.8871 135.8647,-337.2905 132.4259,-325.4622"/>
<polygon fill="#000000" stroke="#000000" points="135.7163,-324.2427 129.5637,-315.6174 128.9946,-326.1969 135.7163,-324.2427"/>
</g>
<!-- model_image_2 -->
<g id="node21" class="node">
<title>model_image_2</title>
<ellipse fill="#ffffdd" stroke="#000000" stroke-width="3" cx="112" cy="-214.6102" rx="64.1938" ry="26.7407"/>
<text text-anchor="middle" x="112" y="-218.4102" font-family="Times,serif" font-size="14.00" fill="#000000">Model Image</text>
<text text-anchor="middle" x="112" y="-203.4102" font-family="Times,serif" font-size="14.00" fill="#000000">2</text>
</g>
<!-- model_creation_2&#45;&gt;model_image_2 -->
<g id="edge24" class="edge">
<title>model_creation_2&#45;&gt;model_image_2</title>
<path fill="none" stroke="#000000" d="M121.1562,-277.0782C120.0403,-269.4652 118.7209,-260.4632 117.4362,-251.6985"/>
<polygon fill="#000000" stroke="#000000" points="120.8717,-251.0027 115.9583,-241.616 113.9457,-252.0179 120.8717,-251.0027"/>
</g>
<!-- model_image_2&#45;&gt;model_subtraction_2 -->
<g id="edge25" class="edge">
<title>model_image_2&#45;&gt;model_subtraction_2</title>
<path fill="none" stroke="#000000" d="M110.6681,-187.3486C110.2686,-179.172 109.8289,-170.1731 109.4237,-161.8803"/>
<polygon fill="#000000" stroke="#000000" points="112.9185,-161.686 108.9346,-151.8688 105.9268,-162.0277 112.9185,-161.686"/>
</g>
<!-- model_subtracted_image_2 -->
<g id="node23" class="node">
<title>model_subtracted_image_2</title>
<ellipse fill="#ddffdd" stroke="#000000" stroke-width="3" cx="108" cy="-50.8701" rx="80.7205" ry="26.7407"/>
<text text-anchor="middle" x="108" y="-54.6701" font-family="Times,serif" font-size="14.00" fill="#000000">Model Subtracted</text>
<text text-anchor="middle" x="108" y="-39.6701" font-family="Times,serif" font-size="14.00" fill="#000000">Image 2</text>
</g>
<!-- model_subtraction_2&#45;&gt;model_subtracted_image_2 -->
<g id="edge27" class="edge">
<title>model_subtraction_2&#45;&gt;model_subtracted_image_2</title>
<path fill="none" stroke="#000000" d="M108,-113.3381C108,-105.7251 108,-96.7231 108,-87.9584"/>
<polygon fill="#000000" stroke="#000000" points="111.5001,-87.8759 108,-77.8759 104.5001,-87.8759 111.5001,-87.8759"/>
</g>
</g>
</svg>
