<?xml version="1.0" encoding="UTF-8" standalone="no"?>
<!DOCTYPE svg PUBLIC "-//W3C//DTD SVG 1.1//EN"
 "http://www.w3.org/Graphics/SVG/1.1/DTD/svg11.dtd">
<!-- Generated by graphviz version 2.40.1 (20161225.0304)
 -->
<!-- Title: subtraction_pipeline Pages: 1 -->
<svg width="1106pt" height="1732pt"
 viewBox="0.00 0.00 1106.31 1731.66" xmlns="http://www.w3.org/2000/svg" xmlns:xlink="http://www.w3.org/1999/xlink">
<g id="graph0" class="graph" transform="scale(1 1) rotate(0) translate(4 1727.661)">
<title>subtraction_pipeline</title>
<polygon fill="#ffffff" stroke="transparent" points="-4,4 -4,-1727.661 1102.3082,-1727.661 1102.3082,4 -4,4"/>
<g id="clust1" class="cluster">
<title>cluster_original_image</title>
<polygon fill="none" stroke="#000000" stroke-dasharray="1,5" points="445.1602,-1425.1808 445.1602,-1517.9209 549.1602,-1517.9209 549.1602,-1425.1808 445.1602,-1425.1808"/>
<text text-anchor="middle" x="497.1602" y="-1502.7209" font-family="Times,serif" font-size="14.00" fill="#000000">Original Image</text>
</g>
<g id="clust2" class="cluster">
<title>cluster_masking_1</title>
<polygon fill="none" stroke="#000000" stroke-dasharray="1,5" points="31.1602,-1434.0509 31.1602,-1706.791 149.1602,-1706.791 149.1602,-1434.0509 31.1602,-1434.0509"/>
<text text-anchor="middle" x="90.1602" y="-1691.591" font-family="Times,serif" font-size="14.00" fill="#000000">Masking 1</text>
</g>
<g id="clust3" class="cluster">
<title>cluster_geometric_parameters_query</title>
<polygon fill="none" stroke="#000000" stroke-dasharray="1,5" points="211.1602,-1425.1808 211.1602,-1715.661 387.1602,-1715.661 387.1602,-1425.1808 211.1602,-1425.1808"/>
<text text-anchor="middle" x="299.1602" y="-1700.461" font-family="Times,serif" font-size="14.00" fill="#000000">Geometric Parameters Query</text>
</g>
<g id="clust4" class="cluster">
<title>cluster_pass_1</title>
<polygon fill="none" stroke="#000000" stroke-dasharray="1,5" points="22.1602,-872.9605 22.1602,-1417.1808 365.1602,-1417.1808 365.1602,-872.9605 22.1602,-872.9605"/>
<text text-anchor="middle" x="193.6602" y="-1401.9808" font-family="Times,serif" font-size="14.00" fill="#000000">Pass 1</text>
</g>
<g id="clust5" class="cluster">
<title>cluster_isophote_fitting_1</title>
<polygon fill="none" stroke="#000000" stroke-dasharray="1,5" points="30.1602,-1044.7006 30.1602,-1386.1808 146.1602,-1386.1808 146.1602,-1044.7006 30.1602,-1044.7006"/>
<text text-anchor="middle" x="88.1602" y="-1370.9808" font-family="Times,serif" font-size="14.00" fill="#000000">Isophote Fitting 1</text>
</g>
<g id="clust6" class="cluster">
<title>cluster_model_creation_subtraction_1</title>
<polygon fill="none" stroke="#000000" stroke-dasharray="1,5" points="154.1602,-880.9605 154.1602,-1211.4407 357.1602,-1211.4407 357.1602,-880.9605 154.1602,-880.9605"/>
<text text-anchor="middle" x="255.6602" y="-1196.2407" font-family="Times,serif" font-size="14.00" fill="#000000">Model Creation and Subtraction 1</text>
</g>
<g id="clust7" class="cluster">
<title>cluster_masking_2</title>
<polygon fill="none" stroke="#000000" stroke-dasharray="1,5" points="190.1602,-552.2203 190.1602,-864.9605 320.1602,-864.9605 320.1602,-552.2203 190.1602,-552.2203"/>
<text text-anchor="middle" x="255.1602" y="-849.7605" font-family="Times,serif" font-size="14.00" fill="#000000">Masking 2</text>
</g>
<g id="clust8" class="cluster">
<title>cluster_pass_2</title>
<polygon fill="none" stroke="#000000" stroke-dasharray="1,5" points="364.1602,-8 364.1602,-544.2203 707.1602,-544.2203 707.1602,-8 364.1602,-8"/>
<text text-anchor="middle" x="535.6602" y="-529.0203" font-family="Times,serif" font-size="14.00" fill="#000000">Pass 2</text>
</g>
<g id="clust9" class="cluster">
<title>cluster_isophote_fitting_2</title>
<polygon fill="none" stroke="#000000" stroke-dasharray="1,5" points="372.1602,-179.7401 372.1602,-513.2203 488.1602,-513.2203 488.1602,-179.7401 372.1602,-179.7401"/>
<text text-anchor="middle" x="430.1602" y="-498.0203" font-family="Times,serif" font-size="14.00" fill="#000000">Isophote Fitting 2</text>
</g>
<g id="clust10" class="cluster">
<title>cluster_model_creation_subtraction_2</title>
<polygon fill="none" stroke="#000000" stroke-dasharray="1,5" points="496.1602,-16 496.1602,-346.4802 699.1602,-346.4802 699.1602,-16 496.1602,-16"/>
<text text-anchor="middle" x="597.6602" y="-331.2802" font-family="Times,serif" font-size="14.00" fill="#000000">Model Creation and Subtraction 2</text>
</g>
<g id="clust11" class="cluster">
<title>cluster_ring_median_filter</title>
<polygon fill="none" stroke="#000000" stroke-dasharray="1,5" points="517.1602,-1219.4407 517.1602,-1386.1808 671.1602,-1386.1808 671.1602,-1219.4407 517.1602,-1219.4407"/>
<text text-anchor="middle" x="594.1602" y="-1370.9808" font-family="Times,serif" font-size="14.00" fill="#000000">Ring Median Filter</text>
</g>
<g id="clust12" class="cluster">
<title>cluster_pass_3</title>
<polygon fill="none" stroke="#000000" stroke-dasharray="1,5" points="709.1602,-872.9605 709.1602,-1548.9209 1077.1602,-1548.9209 1077.1602,-872.9605 709.1602,-872.9605"/>
<text text-anchor="middle" x="893.1602" y="-1533.7209" font-family="Times,serif" font-size="14.00" fill="#000000">Pass 3</text>
</g>
<g id="clust13" class="cluster">
<title>cluster_reference_data</title>
<polygon fill="none" stroke="#000000" stroke-dasharray="1,5" points="720.1602,-1425.1808 720.1602,-1517.9209 993.1602,-1517.9209 993.1602,-1425.1808 720.1602,-1425.1808"/>
<text text-anchor="middle" x="856.6602" y="-1502.7209" font-family="Times,serif" font-size="14.00" fill="#000000">Reference Data</text>
</g>
<g id="clust14" class="cluster">
<title>cluster_isophote_photometry_3</title>
<polygon fill="none" stroke="#000000" stroke-dasharray="1,5" points="717.1602,-1044.7006 717.1602,-1386.1808 858.1602,-1386.1808 858.1602,-1044.7006 717.1602,-1044.7006"/>
<text text-anchor="middle" x="787.6602" y="-1370.9808" font-family="Times,serif" font-size="14.00" fill="#000000">Isophote Photometry 3</text>
</g>
<g id="clust15" class="cluster">
<title>cluster_model_creation_subtraction_3</title>
<polygon fill="none" stroke="#000000" stroke-dasharray="1,5" points="866.1602,-880.9605 866.1602,-1211.4407 1069.1602,-1211.4407 1069.1602,-880.9605 866.1602,-880.9605"/>
<text text-anchor="middle" x="967.6602" y="-1196.2407" font-family="Times,serif" font-size="14.00" fill="#000000">Model Creation and Subtraction 3</text>
</g>
<!-- flag_image -->
<g id="node1" class="node">
<title>flag_image</title>
<ellipse fill="#ffdddd" stroke="#000000" stroke-width="3" cx="90.1602" cy="-1657.791" rx="51.1914" ry="18"/>
<text text-anchor="middle" x="90.1602" y="-1654.091" font-family="Times,serif" font-size="14.00" fill="#000000">Flag Image</text>
</g>
<!-- flag_image_conversion -->
<g id="node4" class="node">
<title>flag_image_conversion</title>
<polygon fill="#ffffff" stroke="#000000" stroke-width="3" points="129.6602,-1594.9209 50.6602,-1594.9209 50.6602,-1556.9209 129.6602,-1556.9209 129.6602,-1594.9209"/>
<text text-anchor="middle" x="90.1602" y="-1579.7209" font-family="Times,serif" font-size="14.00" fill="#000000">Flag Image</text>
<text text-anchor="middle" x="90.1602" y="-1564.7209" font-family="Times,serif" font-size="14.00" fill="#000000">Conversion</text>
</g>
<!-- flag_image&#45;&gt;flag_image_conversion -->
<g id="edge1" class="edge">
<title>flag_image&#45;&gt;flag_image_conversion</title>
<path fill="none" stroke="#000000" d="M90.1602,-1639.6214C90.1602,-1629.5225 90.1602,-1616.713 90.1602,-1605.2333"/>
<polygon fill="#000000" stroke="#000000" points="93.6603,-1605.1804 90.1602,-1595.1805 86.6603,-1605.1805 93.6603,-1605.1804"/>
</g>
<!-- original_image -->
<g id="node2" class="node">
<title>original_image</title>
<ellipse fill="#ffdddd" stroke="#000000" stroke-width="3" cx="497.1602" cy="-1460.0509" rx="43.6818" ry="26.7407"/>
<text text-anchor="middle" x="497.1602" y="-1463.8509" font-family="Times,serif" font-size="14.00" fill="#000000">Original</text>
<text text-anchor="middle" x="497.1602" y="-1448.8509" font-family="Times,serif" font-size="14.00" fill="#000000">Image</text>
</g>
<!-- isophote_fitting_1 -->
<g id="node8" class="node">
<title>isophote_fitting_1</title>
<polygon fill="#ffffff" stroke="#000000" stroke-width="3" points="130.6602,-1355.1808 67.6602,-1355.1808 67.6602,-1317.1808 130.6602,-1317.1808 130.6602,-1355.1808"/>
<text text-anchor="middle" x="99.1602" y="-1339.9808" font-family="Times,serif" font-size="14.00" fill="#000000">Isophote</text>
<text text-anchor="middle" x="99.1602" y="-1324.9808" font-family="Times,serif" font-size="14.00" fill="#000000">Fitting 1</text>
</g>
<!-- original_image&#45;&gt;isophote_fitting_1 -->
<g id="edge5" class="edge">
<title>original_image&#45;&gt;isophote_fitting_1</title>
<path fill="none" stroke="#000000" d="M458.46,-1447.0939C438.4096,-1440.4383 413.5067,-1432.261 391.1602,-1425.1808 302.0358,-1396.9429 197.0851,-1365.3604 140.4406,-1348.4516"/>
<polygon fill="#000000" stroke="#000000" points="141.3571,-1345.0727 130.7738,-1345.5685 139.3564,-1351.7807 141.3571,-1345.0727"/>
</g>
<!-- model_subtraction_1 -->
<g id="node14" class="node">
<title>model_subtraction_1</title>
<polygon fill="#ffffff" stroke="#000000" stroke-width="3" points="299.6602,-1016.7006 210.6602,-1016.7006 210.6602,-978.7006 299.6602,-978.7006 299.6602,-1016.7006"/>
<text text-anchor="middle" x="255.1602" y="-1001.5006" font-family="Times,serif" font-size="14.00" fill="#000000">Model</text>
<text text-anchor="middle" x="255.1602" y="-986.5006" font-family="Times,serif" font-size="14.00" fill="#000000">Subtraction 1</text>
</g>
<!-- original_image&#45;&gt;model_subtraction_1 -->
<g id="edge14" class="edge">
<title>original_image&#45;&gt;model_subtraction_1</title>
<path fill="none" stroke="#000000" stroke-dasharray="5,2" d="M466.1793,-1440.6999C458.1228,-1434.1939 450.2784,-1426.2494 445.1602,-1417.1808 409.1973,-1353.4605 421.1602,-1327.4791 421.1602,-1254.3107 421.1602,-1254.3107 421.1602,-1254.3107 421.1602,-1161.4407 421.1602,-1096.0847 355.1349,-1048.0382 306.3644,-1021.4629"/>
<polygon fill="#000000" stroke="#000000" points="307.953,-1018.3437 297.4785,-1016.7513 304.6738,-1024.5281 307.953,-1018.3437"/>
</g>
<!-- isophote_fitting_2 -->
<g id="node20" class="node">
<title>isophote_fitting_2</title>
<polygon fill="#ffffff" stroke="#000000" stroke-width="3" points="452.6602,-482.2203 389.6602,-482.2203 389.6602,-444.2203 452.6602,-444.2203 452.6602,-482.2203"/>
<text text-anchor="middle" x="421.1602" y="-467.0203" font-family="Times,serif" font-size="14.00" fill="#000000">Isophote</text>
<text text-anchor="middle" x="421.1602" y="-452.0203" font-family="Times,serif" font-size="14.00" fill="#000000">Fitting 2</text>
</g>
<!-- original_image&#45;&gt;isophote_fitting_2 -->
<g id="edge21" class="edge">
<title>original_image&#45;&gt;isophote_fitting_2</title>
<path fill="none" stroke="#000000" d="M489.0083,-1433.3811C477.8426,-1394.4282 459.1602,-1319.5104 459.1602,-1254.3107 459.1602,-1254.3107 459.1602,-1254.3107 459.1602,-668.9605 459.1602,-604.9413 441.1482,-531.5527 429.9259,-492.0411"/>
<polygon fill="#000000" stroke="#000000" points="433.2451,-490.92 427.0977,-482.291 426.5222,-492.8702 433.2451,-490.92"/>
</g>
<!-- model_subtraction_2 -->
<g id="node26" class="node">
<title>model_subtraction_2</title>
<polygon fill="#ffffff" stroke="#000000" stroke-width="3" points="641.6602,-151.7401 552.6602,-151.7401 552.6602,-113.7401 641.6602,-113.7401 641.6602,-151.7401"/>
<text text-anchor="middle" x="597.1602" y="-136.5401" font-family="Times,serif" font-size="14.00" fill="#000000">Model</text>
<text text-anchor="middle" x="597.1602" y="-121.5401" font-family="Times,serif" font-size="14.00" fill="#000000">Subtraction 2</text>
</g>
<!-- original_image&#45;&gt;model_subtraction_2 -->
<g id="edge30" class="edge">
<title>original_image&#45;&gt;model_subtraction_2</title>
<path fill="none" stroke="#000000" stroke-dasharray="5,2" d="M540.4249,-1455.3686C587.2961,-1449.3449 657.7352,-1437.2015 675.1602,-1417.1808 722.9119,-1362.3157 691.1602,-1327.0459 691.1602,-1254.3107 691.1602,-1254.3107 691.1602,-1254.3107 691.1602,-1161.4407 691.1602,-1108.6429 673.8545,-1079.9521 713.1602,-1044.7006 772.8967,-991.1256 1012.6672,-1069.4197 1073.1602,-1016.7006 1107.7523,-986.5539 1095.1602,-961.7155 1095.1602,-915.8305 1095.1602,-915.8305 1095.1602,-915.8305 1095.1602,-296.4802 1095.1602,-203.9914 781.2592,-155.1525 651.8874,-138.9515"/>
<polygon fill="#000000" stroke="#000000" points="652.1458,-135.4569 641.7927,-137.7069 651.2892,-142.4043 652.1458,-135.4569"/>
</g>
<!-- ring_median_filter -->
<g id="node28" class="node">
<title>ring_median_filter</title>
<polygon fill="#ffffff" stroke="#000000" stroke-width="3" points="626.6602,-1355.1808 537.6602,-1355.1808 537.6602,-1317.1808 626.6602,-1317.1808 626.6602,-1355.1808"/>
<text text-anchor="middle" x="582.1602" y="-1339.9808" font-family="Times,serif" font-size="14.00" fill="#000000">Ring Median</text>
<text text-anchor="middle" x="582.1602" y="-1324.9808" font-family="Times,serif" font-size="14.00" fill="#000000">Filter</text>
</g>
<!-- original_image&#45;&gt;ring_median_filter -->
<g id="edge32" class="edge">
<title>original_image&#45;&gt;ring_median_filter</title>
<path fill="none" stroke="#000000" d="M514.1569,-1435.2816C528.379,-1414.556 548.6473,-1385.019 563.3534,-1363.5879"/>
<polygon fill="#000000" stroke="#000000" points="566.3127,-1365.4612 569.0848,-1355.2355 560.5409,-1361.5006 566.3127,-1365.4612"/>
</g>
<!-- isophote_photometry_3 -->
<g id="node32" class="node">
<title>isophote_photometry_3</title>
<polygon fill="#ffffff" stroke="#000000" stroke-width="3" points="826.6602,-1355.1808 735.6602,-1355.1808 735.6602,-1317.1808 826.6602,-1317.1808 826.6602,-1355.1808"/>
<text text-anchor="middle" x="781.1602" y="-1339.9808" font-family="Times,serif" font-size="14.00" fill="#000000">Isophote</text>
<text text-anchor="middle" x="781.1602" y="-1324.9808" font-family="Times,serif" font-size="14.00" fill="#000000">Photometry 3</text>
</g>
<!-- original_image&#45;&gt;isophote_photometry_3 -->
<g id="edge34" class="edge">
<title>original_image&#45;&gt;isophote_photometry_3</title>
<path fill="none" stroke="#000000" d="M540.2541,-1454.3005C592.6165,-1446.7774 677.4104,-1432.7119 705.1602,-1417.1808 728.2975,-1404.2313 748.5052,-1381.825 762.2556,-1363.8563"/>
<polygon fill="#000000" stroke="#000000" points="765.3387,-1365.5737 768.4716,-1355.4527 759.7109,-1361.4109 765.3387,-1365.5737"/>
</g>
<!-- model_subtraction_3 -->
<g id="node38" class="node">
<title>model_subtraction_3</title>
<polygon fill="#ffffff" stroke="#000000" stroke-width="3" points="982.6602,-1016.7006 893.6602,-1016.7006 893.6602,-978.7006 982.6602,-978.7006 982.6602,-1016.7006"/>
<text text-anchor="middle" x="938.1602" y="-1001.5006" font-family="Times,serif" font-size="14.00" fill="#000000">Model</text>
<text text-anchor="middle" x="938.1602" y="-986.5006" font-family="Times,serif" font-size="14.00" fill="#000000">Subtraction 3</text>
</g>
<!-- original_image&#45;&gt;model_subtraction_3 -->
<g id="edge43" class="edge">
<title>original_image&#45;&gt;model_subtraction_3</title>
<path fill="none" stroke="#000000" stroke-dasharray="5,2" d="M497.1602,-1433.0906C497.1602,-1393.7801 497.1602,-1318.4259 497.1602,-1254.3107 497.1602,-1254.3107 497.1602,-1254.3107 497.1602,-1161.4407 497.1602,-1066.0887 588.4962,-1079.7818 677.1602,-1044.7006 745.1318,-1017.8066 829.1819,-1006.1935 883.2233,-1001.2516"/>
<polygon fill="#000000" stroke="#000000" points="883.6264,-1004.7298 893.2857,-1000.3769 883.0202,-997.7561 883.6264,-1004.7298"/>
</g>
<!-- galaxy_catalog -->
<g id="node3" class="node">
<title>galaxy_catalog</title>
<ellipse fill="#ffdddd" stroke="#000000" stroke-width="3" cx="299.1602" cy="-1657.791" rx="41.9398" ry="26.7407"/>
<text text-anchor="middle" x="299.1602" y="-1661.591" font-family="Times,serif" font-size="14.00" fill="#000000">Galaxy</text>
<text text-anchor="middle" x="299.1602" y="-1646.591" font-family="Times,serif" font-size="14.00" fill="#000000">Catalog</text>
</g>
<!-- geometric_parameters_query -->
<g id="node6" class="node">
<title>geometric_parameters_query</title>
<polygon fill="#ffffff" stroke="#000000" stroke-width="3" points="356.6602,-1594.9209 241.6602,-1594.9209 241.6602,-1556.9209 356.6602,-1556.9209 356.6602,-1594.9209"/>
<text text-anchor="middle" x="299.1602" y="-1579.7209" font-family="Times,serif" font-size="14.00" fill="#000000">Geometric</text>
<text text-anchor="middle" x="299.1602" y="-1564.7209" font-family="Times,serif" font-size="14.00" fill="#000000">Parameters Query</text>
</g>
<!-- galaxy_catalog&#45;&gt;geometric_parameters_query -->
<g id="edge3" class="edge">
<title>galaxy_catalog&#45;&gt;geometric_parameters_query</title>
<path fill="none" stroke="#000000" d="M299.1602,-1630.5294C299.1602,-1622.3528 299.1602,-1613.3539 299.1602,-1605.0611"/>
<polygon fill="#000000" stroke="#000000" points="302.6603,-1605.0496 299.1602,-1595.0496 295.6603,-1605.0496 302.6603,-1605.0496"/>
</g>
<!-- flag_mask -->
<g id="node5" class="node">
<title>flag_mask</title>
<ellipse fill="#ffffdd" stroke="#000000" stroke-width="3" cx="90.1602" cy="-1460.0509" rx="48.9926" ry="18"/>
<text text-anchor="middle" x="90.1602" y="-1456.3509" font-family="Times,serif" font-size="14.00" fill="#000000">Flag Mask</text>
</g>
<!-- flag_image_conversion&#45;&gt;flag_mask -->
<g id="edge2" class="edge">
<title>flag_image_conversion&#45;&gt;flag_mask</title>
<path fill="none" stroke="#000000" d="M90.1602,-1556.7873C90.1602,-1538.0915 90.1602,-1509.4185 90.1602,-1488.1376"/>
<polygon fill="#000000" stroke="#000000" points="93.6603,-1488.0681 90.1602,-1478.0681 86.6603,-1488.0682 93.6603,-1488.0681"/>
</g>
<!-- flag_mask&#45;&gt;isophote_fitting_1 -->
<g id="edge6" class="edge">
<title>flag_mask&#45;&gt;isophote_fitting_1</title>
<path fill="none" stroke="#000000" stroke-dasharray="5,2" d="M91.4689,-1442.0391C92.9232,-1422.0224 95.2938,-1389.395 97.0193,-1365.647"/>
<polygon fill="#000000" stroke="#000000" points="100.5271,-1365.6652 97.7611,-1355.4378 93.5455,-1365.1578 100.5271,-1365.6652"/>
</g>
<!-- mask_combination -->
<g id="node18" class="node">
<title>mask_combination</title>
<polygon fill="#ffffff" stroke="#000000" stroke-width="3" points="299.1602,-687.9605 211.1602,-687.9605 211.1602,-649.9605 299.1602,-649.9605 299.1602,-687.9605"/>
<text text-anchor="middle" x="255.1602" y="-672.7605" font-family="Times,serif" font-size="14.00" fill="#000000">Mask</text>
<text text-anchor="middle" x="255.1602" y="-657.7605" font-family="Times,serif" font-size="14.00" fill="#000000">Combination</text>
</g>
<!-- flag_mask&#45;&gt;mask_combination -->
<g id="edge18" class="edge">
<title>flag_mask&#45;&gt;mask_combination</title>
<path fill="none" stroke="#000000" stroke-dasharray="5,2" d="M58.7155,-1446.1148C46.6188,-1439.1593 33.8716,-1429.5512 26.1602,-1417.1808 -12.4807,-1355.1943 4.1602,-1327.3548 4.1602,-1254.3107 4.1602,-1254.3107 4.1602,-1254.3107 4.1602,-814.9605 4.1602,-724.5635 127.3094,-689.1716 201.0874,-676.0796"/>
<polygon fill="#000000" stroke="#000000" points="201.8761,-679.496 211.1521,-674.3769 200.7084,-672.5941 201.8761,-679.496"/>
</g>
<!-- geometric_parameters -->
<g id="node7" class="node">
<title>geometric_parameters</title>
<ellipse fill="#ffffdd" stroke="#000000" stroke-width="3" cx="299.1602" cy="-1460.0509" rx="54.3945" ry="26.7407"/>
<text text-anchor="middle" x="299.1602" y="-1463.8509" font-family="Times,serif" font-size="14.00" fill="#000000">Geometric</text>
<text text-anchor="middle" x="299.1602" y="-1448.8509" font-family="Times,serif" font-size="14.00" fill="#000000">Parameters</text>
</g>
<!-- geometric_parameters_query&#45;&gt;geometric_parameters -->
<g id="edge4" class="edge">
<title>geometric_parameters_query&#45;&gt;geometric_parameters</title>
<path fill="none" stroke="#000000" d="M299.1602,-1556.7873C299.1602,-1540.6596 299.1602,-1517.1074 299.1602,-1497.2806"/>
<polygon fill="#000000" stroke="#000000" points="302.6603,-1497.0162 299.1602,-1487.0162 295.6603,-1497.0163 302.6603,-1497.0162"/>
</g>
<!-- geometric_parameters&#45;&gt;isophote_fitting_1 -->
<g id="edge7" class="edge">
<title>geometric_parameters&#45;&gt;isophote_fitting_1</title>
<path fill="none" stroke="#000000" stroke-dasharray="5,2" d="M264.779,-1438.7568C229.8755,-1417.1394 175.877,-1383.6954 139.0978,-1360.9162"/>
<polygon fill="#000000" stroke="#000000" points="140.4847,-1357.6582 130.1403,-1355.3683 136.7989,-1363.6093 140.4847,-1357.6582"/>
</g>
<!-- geometric_parameters&#45;&gt;isophote_fitting_2 -->
<g id="edge23" class="edge">
<title>geometric_parameters&#45;&gt;isophote_fitting_2</title>
<path fill="none" stroke="#000000" stroke-dasharray="5,2" d="M317.1803,-1434.467C341.8623,-1396.8508 383.1602,-1323.5639 383.1602,-1254.3107 383.1602,-1254.3107 383.1602,-1254.3107 383.1602,-668.9605 383.1602,-604.9413 401.1722,-531.5527 412.3945,-492.0411"/>
<polygon fill="#000000" stroke="#000000" points="415.7982,-492.8702 415.2227,-482.291 409.0754,-490.92 415.7982,-492.8702"/>
</g>
<!-- isophote_table_1 -->
<g id="node9" class="node">
<title>isophote_table_1</title>
<ellipse fill="#ffffdd" stroke="#000000" stroke-width="3" cx="93.1602" cy="-1254.3107" rx="44.5955" ry="26.7407"/>
<text text-anchor="middle" x="93.1602" y="-1258.1107" font-family="Times,serif" font-size="14.00" fill="#000000">Isophote</text>
<text text-anchor="middle" x="93.1602" y="-1243.1107" font-family="Times,serif" font-size="14.00" fill="#000000">Table 1</text>
</g>
<!-- isophote_fitting_1&#45;&gt;isophote_table_1 -->
<g id="edge8" class="edge">
<title>isophote_fitting_1&#45;&gt;isophote_table_1</title>
<path fill="none" stroke="#000000" d="M97.7383,-1316.7787C97.1804,-1309.1658 96.5206,-1300.1638 95.8783,-1291.3991"/>
<polygon fill="#000000" stroke="#000000" points="99.361,-1291.034 95.1394,-1281.3166 92.3798,-1291.5457 99.361,-1291.034"/>
</g>
<!-- region_conversion_1 -->
<g id="node10" class="node">
<title>region_conversion_1</title>
<polygon fill="#ffffff" stroke="#000000" stroke-width="3" points="134.6602,-1180.4407 45.6602,-1180.4407 45.6602,-1142.4407 134.6602,-1142.4407 134.6602,-1180.4407"/>
<text text-anchor="middle" x="90.1602" y="-1165.2407" font-family="Times,serif" font-size="14.00" fill="#000000">Region</text>
<text text-anchor="middle" x="90.1602" y="-1150.2407" font-family="Times,serif" font-size="14.00" fill="#000000">Conversion 1</text>
</g>
<!-- isophote_table_1&#45;&gt;region_conversion_1 -->
<g id="edge9" class="edge">
<title>isophote_table_1&#45;&gt;region_conversion_1</title>
<path fill="none" stroke="#000000" d="M92.2763,-1226.949C91.9085,-1215.5608 91.4808,-1202.3202 91.1065,-1190.7353"/>
<polygon fill="#000000" stroke="#000000" points="94.6023,-1190.544 90.7811,-1180.6623 87.6059,-1190.7701 94.6023,-1190.544"/>
</g>
<!-- model_creation_1 -->
<g id="node12" class="node">
<title>model_creation_1</title>
<polygon fill="#ffffff" stroke="#000000" stroke-width="3" points="258.1602,-1180.4407 184.1602,-1180.4407 184.1602,-1142.4407 258.1602,-1142.4407 258.1602,-1180.4407"/>
<text text-anchor="middle" x="221.1602" y="-1165.2407" font-family="Times,serif" font-size="14.00" fill="#000000">Model</text>
<text text-anchor="middle" x="221.1602" y="-1150.2407" font-family="Times,serif" font-size="14.00" fill="#000000">Creation 1</text>
</g>
<!-- isophote_table_1&#45;&gt;model_creation_1 -->
<g id="edge11" class="edge">
<title>isophote_table_1&#45;&gt;model_creation_1</title>
<path fill="none" stroke="#000000" d="M121.8859,-1233.4689C140.9764,-1219.6179 166.1563,-1201.3486 186.3798,-1186.6755"/>
<polygon fill="#000000" stroke="#000000" points="188.6727,-1189.3361 194.7113,-1180.6306 184.5619,-1183.6703 188.6727,-1189.3361"/>
</g>
<!-- isophote_regions_1 -->
<g id="node11" class="node">
<title>isophote_regions_1</title>
<ellipse fill="#ddeeff" stroke="#000000" stroke-width="3" cx="88.1602" cy="-1079.5706" rx="50.41" ry="26.7407"/>
<text text-anchor="middle" x="88.1602" y="-1083.3706" font-family="Times,serif" font-size="14.00" fill="#000000">Isophote</text>
<text text-anchor="middle" x="88.1602" y="-1068.3706" font-family="Times,serif" font-size="14.00" fill="#000000">Regions 1</text>
</g>
<!-- region_conversion_1&#45;&gt;isophote_regions_1 -->
<g id="edge10" class="edge">
<title>region_conversion_1&#45;&gt;isophote_regions_1</title>
<path fill="none" stroke="#000000" d="M89.6862,-1142.0386C89.5003,-1134.4257 89.2804,-1125.4237 89.0662,-1116.659"/>
<polygon fill="#000000" stroke="#000000" points="92.5632,-1116.488 88.8199,-1106.5765 85.5653,-1116.659 92.5632,-1116.488"/>
</g>
<!-- model_image_1 -->
<g id="node13" class="node">
<title>model_image_1</title>
<ellipse fill="#ffffdd" stroke="#000000" stroke-width="3" cx="241.1602" cy="-1079.5706" rx="64.1938" ry="26.7407"/>
<text text-anchor="middle" x="241.1602" y="-1083.3706" font-family="Times,serif" font-size="14.00" fill="#000000">Model Image</text>
<text text-anchor="middle" x="241.1602" y="-1068.3706" font-family="Times,serif" font-size="14.00" fill="#000000">1</text>
</g>
<!-- model_creation_1&#45;&gt;model_image_1 -->
<g id="edge12" class="edge">
<title>model_creation_1&#45;&gt;model_image_1</title>
<path fill="none" stroke="#000000" d="M225.8999,-1142.0386C227.7799,-1134.3429 230.0066,-1125.2278 232.1697,-1116.3733"/>
<polygon fill="#000000" stroke="#000000" points="235.5898,-1117.1214 234.563,-1106.5765 228.7898,-1115.4602 235.5898,-1117.1214"/>
</g>
<!-- model_image_1&#45;&gt;model_subtraction_1 -->
<g id="edge13" class="edge">
<title>model_image_1&#45;&gt;model_subtraction_1</title>
<path fill="none" stroke="#000000" d="M245.7443,-1052.7633C247.173,-1044.4085 248.7548,-1035.1587 250.2075,-1026.6633"/>
<polygon fill="#000000" stroke="#000000" points="253.6609,-1027.2326 251.8966,-1016.7857 246.761,-1026.0526 253.6609,-1027.2326"/>
</g>
<!-- model_subtracted_image_1 -->
<g id="node15" class="node">
<title>model_subtracted_image_1</title>
<ellipse fill="#ddffdd" stroke="#000000" stroke-width="3" cx="255.1602" cy="-915.8305" rx="80.7205" ry="26.7407"/>
<text text-anchor="middle" x="255.1602" y="-919.6305" font-family="Times,serif" font-size="14.00" fill="#000000">Model Subtracted</text>
<text text-anchor="middle" x="255.1602" y="-904.6305" font-family="Times,serif" font-size="14.00" fill="#000000">Image 1</text>
</g>
<!-- model_subtraction_1&#45;&gt;model_subtracted_image_1 -->
<g id="edge15" class="edge">
<title>model_subtraction_1&#45;&gt;model_subtracted_image_1</title>
<path fill="none" stroke="#000000" d="M255.1602,-978.2985C255.1602,-970.6856 255.1602,-961.6836 255.1602,-952.9189"/>
<polygon fill="#000000" stroke="#000000" points="258.6603,-952.8363 255.1602,-942.8363 251.6603,-952.8364 258.6603,-952.8363"/>
</g>
<!-- object_detection -->
<g id="node16" class="node">
<title>object_detection</title>
<polygon fill="#ffffff" stroke="#000000" stroke-width="3" points="289.6602,-833.9605 220.6602,-833.9605 220.6602,-795.9605 289.6602,-795.9605 289.6602,-833.9605"/>
<text text-anchor="middle" x="255.1602" y="-818.7605" font-family="Times,serif" font-size="14.00" fill="#000000">Object</text>
<text text-anchor="middle" x="255.1602" y="-803.7605" font-family="Times,serif" font-size="14.00" fill="#000000">Detection</text>
</g>
<!-- model_subtracted_image_1&#45;&gt;object_detection -->
<g id="edge16" class="edge">
<title>model_subtracted_image_1&#45;&gt;object_detection</title>
<path fill="none" stroke="#000000" d="M255.1602,-888.7992C255.1602,-875.0342 255.1602,-858.2806 255.1602,-844.2136"/>
<polygon fill="#000000" stroke="#000000" points="258.6603,-844.0742 255.1602,-834.0742 251.6603,-844.0742 258.6603,-844.0742"/>
</g>
<!-- object_mask -->
<g id="node17" class="node">
<title>object_mask</title>
<ellipse fill="#ffffdd" stroke="#000000" stroke-width="3" cx="255.1602" cy="-741.9605" rx="56.59" ry="18"/>
<text text-anchor="middle" x="255.1602" y="-738.2605" font-family="Times,serif" font-size="14.00" fill="#000000">Object Mask</text>
</g>
<!-- object_detection&#45;&gt;object_mask -->
<g id="edge17" class="edge">
<title>object_detection&#45;&gt;object_mask</title>
<path fill="none" stroke="#000000" d="M255.1602,-795.7806C255.1602,-788.0579 255.1602,-778.9887 255.1602,-770.519"/>
<polygon fill="#000000" stroke="#000000" points="258.6603,-770.2578 255.1602,-760.2578 251.6603,-770.2578 258.6603,-770.2578"/>
</g>
<!-- object_mask&#45;&gt;mask_combination -->
<g id="edge19" class="edge">
<title>object_mask&#45;&gt;mask_combination</title>
<path fill="none" stroke="#000000" d="M255.1602,-723.9155C255.1602,-716.1712 255.1602,-706.9227 255.1602,-698.2416"/>
<polygon fill="#000000" stroke="#000000" points="258.6603,-698.0733 255.1602,-688.0733 251.6603,-698.0733 258.6603,-698.0733"/>
</g>
<!-- combined_mask -->
<g id="node19" class="node">
<title>combined_mask</title>
<ellipse fill="#ffffdd" stroke="#000000" stroke-width="3" cx="258.1602" cy="-587.0904" rx="52.1524" ry="26.7407"/>
<text text-anchor="middle" x="258.1602" y="-590.8904" font-family="Times,serif" font-size="14.00" fill="#000000">Combined</text>
<text text-anchor="middle" x="258.1602" y="-575.8904" font-family="Times,serif" font-size="14.00" fill="#000000">Mask</text>
</g>
<!-- mask_combination&#45;&gt;combined_mask -->
<g id="edge20" class="edge">
<title>mask_combination&#45;&gt;combined_mask</title>
<path fill="none" stroke="#000000" d="M255.8712,-649.5584C256.1501,-641.9455 256.48,-632.9435 256.8012,-624.1788"/>
<polygon fill="#000000" stroke="#000000" points="260.302,-624.2177 257.1706,-614.0962 253.3067,-623.9613 260.302,-624.2177"/>
</g>
<!-- combined_mask&#45;&gt;isophote_fitting_2 -->
<g id="edge22" class="edge">
<title>combined_mask&#45;&gt;isophote_fitting_2</title>
<path fill="none" stroke="#000000" stroke-dasharray="5,2" d="M287.6783,-564.6585C315.9013,-543.2107 358.398,-510.9158 387.8268,-488.5517"/>
<polygon fill="#000000" stroke="#000000" points="390.2893,-491.0763 396.1335,-482.2391 386.054,-485.503 390.2893,-491.0763"/>
</g>
<!-- isophote_table_2 -->
<g id="node21" class="node">
<title>isophote_table_2</title>
<ellipse fill="#ffffdd" stroke="#000000" stroke-width="3" cx="430.1602" cy="-381.3503" rx="44.5955" ry="26.7407"/>
<text text-anchor="middle" x="430.1602" y="-385.1503" font-family="Times,serif" font-size="14.00" fill="#000000">Isophote</text>
<text text-anchor="middle" x="430.1602" y="-370.1503" font-family="Times,serif" font-size="14.00" fill="#000000">Table 2</text>
</g>
<!-- isophote_fitting_2&#45;&gt;isophote_table_2 -->
<g id="edge24" class="edge">
<title>isophote_fitting_2&#45;&gt;isophote_table_2</title>
<path fill="none" stroke="#000000" d="M423.2931,-443.8183C424.13,-436.2053 425.1196,-427.2034 426.0831,-418.4387"/>
<polygon fill="#000000" stroke="#000000" points="429.5777,-418.6787 427.1915,-408.3561 422.6196,-417.9138 429.5777,-418.6787"/>
</g>
<!-- region_conversion_2 -->
<g id="node22" class="node">
<title>region_conversion_2</title>
<polygon fill="#ffffff" stroke="#000000" stroke-width="3" points="474.6602,-315.4802 385.6602,-315.4802 385.6602,-277.4802 474.6602,-277.4802 474.6602,-315.4802"/>
<text text-anchor="middle" x="430.1602" y="-300.2802" font-family="Times,serif" font-size="14.00" fill="#000000">Region</text>
<text text-anchor="middle" x="430.1602" y="-285.2802" font-family="Times,serif" font-size="14.00" fill="#000000">Conversion 2</text>
</g>
<!-- isophote_table_2&#45;&gt;region_conversion_2 -->
<g id="edge25" class="edge">
<title>isophote_table_2&#45;&gt;region_conversion_2</title>
<path fill="none" stroke="#000000" d="M430.1602,-354.0297C430.1602,-345.0439 430.1602,-335.0179 430.1602,-325.8841"/>
<polygon fill="#000000" stroke="#000000" points="433.6603,-325.6872 430.1602,-315.6872 426.6603,-325.6872 433.6603,-325.6872"/>
</g>
<!-- model_creation_2 -->
<g id="node24" class="node">
<title>model_creation_2</title>
<polygon fill="#ffffff" stroke="#000000" stroke-width="3" points="598.1602,-315.4802 524.1602,-315.4802 524.1602,-277.4802 598.1602,-277.4802 598.1602,-315.4802"/>
<text text-anchor="middle" x="561.1602" y="-300.2802" font-family="Times,serif" font-size="14.00" fill="#000000">Model</text>
<text text-anchor="middle" x="561.1602" y="-285.2802" font-family="Times,serif" font-size="14.00" fill="#000000">Creation 2</text>
</g>
<!-- isophote_table_2&#45;&gt;model_creation_2 -->
<g id="edge27" class="edge">
<title>isophote_table_2&#45;&gt;model_creation_2</title>
<path fill="none" stroke="#000000" d="M463.7169,-363.4014C473.0545,-358.1589 483.113,-352.2754 492.1602,-346.4802 504.0724,-338.8499 516.7128,-329.9436 527.8753,-321.7791"/>
<polygon fill="#000000" stroke="#000000" points="530.1226,-324.4705 536.0868,-315.7137 525.9636,-318.8399 530.1226,-324.4705"/>
</g>
<!-- isophote_regions_2 -->
<g id="node23" class="node">
<title>isophote_regions_2</title>
<ellipse fill="#ddeeff" stroke="#000000" stroke-width="3" cx="430.1602" cy="-214.6102" rx="50.41" ry="26.7407"/>
<text text-anchor="middle" x="430.1602" y="-218.4102" font-family="Times,serif" font-size="14.00" fill="#000000">Isophote</text>
<text text-anchor="middle" x="430.1602" y="-203.4102" font-family="Times,serif" font-size="14.00" fill="#000000">Regions 2</text>
</g>
<!-- region_conversion_2&#45;&gt;isophote_regions_2 -->
<g id="edge26" class="edge">
<title>region_conversion_2&#45;&gt;isophote_regions_2</title>
<path fill="none" stroke="#000000" d="M430.1602,-277.0782C430.1602,-269.4652 430.1602,-260.4632 430.1602,-251.6985"/>
<polygon fill="#000000" stroke="#000000" points="433.6603,-251.616 430.1602,-241.616 426.6603,-251.616 433.6603,-251.616"/>
</g>
<!-- model_image_2 -->
<g id="node25" class="node">
<title>model_image_2</title>
<ellipse fill="#ffffdd" stroke="#000000" stroke-width="3" cx="583.1602" cy="-214.6102" rx="64.1938" ry="26.7407"/>
<text text-anchor="middle" x="583.1602" y="-218.4102" font-family="Times,serif" font-size="14.00" fill="#000000">Model Image</text>
<text text-anchor="middle" x="583.1602" y="-203.4102" font-family="Times,serif" font-size="14.00" fill="#000000">2</text>
</g>
<!-- model_creation_2&#45;&gt;model_image_2 -->
<g id="edge28" class="edge">
<title>model_creation_2&#45;&gt;model_image_2</title>
<path fill="none" stroke="#000000" d="M566.3739,-277.0782C568.4419,-269.3825 570.8913,-260.2674 573.2707,-251.4128"/>
<polygon fill="#000000" stroke="#000000" points="576.6881,-252.1817 575.9033,-241.616 569.928,-250.3651 576.6881,-252.1817"/>
</g>
<!-- model_image_2&#45;&gt;model_subtraction_2 -->
<g id="edge29" class="edge">
<title>model_image_2&#45;&gt;model_subtraction_2</title>
<path fill="none" stroke="#000000" d="M587.7443,-187.8029C589.173,-179.448 590.7548,-170.1983 592.2075,-161.7028"/>
<polygon fill="#000000" stroke="#000000" points="595.6609,-162.2721 593.8966,-151.8252 588.761,-161.0922 595.6609,-162.2721"/>
</g>
<!-- model_subtracted_image_2 -->
<g id="node27" class="node">
<title>model_subtracted_image_2</title>
<ellipse fill="#ddffdd" stroke="#000000" stroke-width="3" cx="597.1602" cy="-50.8701" rx="80.7205" ry="26.7407"/>
<text text-anchor="middle" x="597.1602" y="-54.6701" font-family="Times,serif" font-size="14.00" fill="#000000">Model Subtracted</text>
<text text-anchor="middle" x="597.1602" y="-39.6701" font-family="Times,serif" font-size="14.00" fill="#000000">Image 2</text>
</g>
<!-- model_subtraction_2&#45;&gt;model_subtracted_image_2 -->
<g id="edge31" class="edge">
<title>model_subtraction_2&#45;&gt;model_subtracted_image_2</title>
<path fill="none" stroke="#000000" d="M597.1602,-113.3381C597.1602,-105.7251 597.1602,-96.7231 597.1602,-87.9584"/>
<polygon fill="#000000" stroke="#000000" points="600.6603,-87.8759 597.1602,-77.8759 593.6603,-87.8759 600.6603,-87.8759"/>
</g>
<!-- ring_median_filtered_image -->
<g id="node29" class="node">
<title>ring_median_filtered_image</title>
<ellipse fill="#ddffdd" stroke="#000000" stroke-width="3" cx="594.1602" cy="-1254.3107" rx="68.6788" ry="26.7407"/>
<text text-anchor="middle" x="594.1602" y="-1258.1107" font-family="Times,serif" font-size="14.00" fill="#000000">Ring Median</text>
<text text-anchor="middle" x="594.1602" y="-1243.1107" font-family="Times,serif" font-size="14.00" fill="#000000">Filtered Image</text>
</g>
<!-- ring_median_filter&#45;&gt;ring_median_filtered_image -->
<g id="edge33" class="edge">
<title>ring_median_filter&#45;&gt;ring_median_filtered_image</title>
<path fill="none" stroke="#000000" d="M585.004,-1316.7787C586.1199,-1309.1658 587.4394,-1300.1638 588.724,-1291.3991"/>
<polygon fill="#000000" stroke="#000000" points="592.2145,-1291.7185 590.2019,-1281.3166 585.2885,-1290.7032 592.2145,-1291.7185"/>
</g>
<!-- reference_isophote_table -->
<g id="node30" class="node">
<title>reference_isophote_table</title>
<ellipse fill="#ffffdd" stroke="#000000" stroke-width="3" cx="916.1602" cy="-1460.0509" rx="69.0935" ry="26.7407"/>
<text text-anchor="middle" x="916.1602" y="-1463.8509" font-family="Times,serif" font-size="14.00" fill="#000000">Reference</text>
<text text-anchor="middle" x="916.1602" y="-1448.8509" font-family="Times,serif" font-size="14.00" fill="#000000">Isophote Table</text>
</g>
<!-- reference_isophote_table&#45;&gt;isophote_photometry_3 -->
<g id="edge35" class="edge">
<title>reference_isophote_table&#45;&gt;isophote_photometry_3</title>
<path fill="none" stroke="#000000" stroke-dasharray="5,2" d="M889.1654,-1435.2816C866.0756,-1414.0954 832.9512,-1383.7019 809.486,-1362.1713"/>
<polygon fill="#000000" stroke="#000000" points="811.6616,-1359.4174 801.927,-1355.2355 806.929,-1364.5752 811.6616,-1359.4174"/>
</g>
<!-- reference_mask -->
<g id="node31" class="node">
<title>reference_mask</title>
<ellipse fill="#ffffdd" stroke="#000000" stroke-width="3" cx="778.1602" cy="-1460.0509" rx="50.41" ry="26.7407"/>
<text text-anchor="middle" x="778.1602" y="-1463.8509" font-family="Times,serif" font-size="14.00" fill="#000000">Reference</text>
<text text-anchor="middle" x="778.1602" y="-1448.8509" font-family="Times,serif" font-size="14.00" fill="#000000">Mask</text>
</g>
<!-- reference_mask&#45;&gt;isophote_photometry_3 -->
<g id="edge36" class="edge">
<title>reference_mask&#45;&gt;isophote_photometry_3</title>
<path fill="none" stroke="#000000" stroke-dasharray="5,2" d="M778.8112,-1433.1729C779.2954,-1413.1773 779.9558,-1385.9128 780.453,-1365.3821"/>
<polygon fill="#000000" stroke="#000000" points="783.9531,-1365.4157 780.6963,-1355.3339 776.9552,-1365.2462 783.9531,-1365.4157"/>
</g>
<!-- isophote_table_3 -->
<g id="node33" class="node">
<title>isophote_table_3</title>
<ellipse fill="#ffffdd" stroke="#000000" stroke-width="3" cx="787.1602" cy="-1254.3107" rx="44.5955" ry="26.7407"/>
<text text-anchor="middle" x="787.1602" y="-1258.1107" font-family="Times,serif" font-size="14.00" fill="#000000">Isophote</text>
<text text-anchor="middle" x="787.1602" y="-1243.1107" font-family="Times,serif" font-size="14.00" fill="#000000">Table 3</text>
</g>
<!-- isophote_photometry_3&#45;&gt;isophote_table_3 -->
<g id="edge37" class="edge">
<title>isophote_photometry_3&#45;&gt;isophote_table_3</title>
<path fill="none" stroke="#000000" d="M782.5821,-1316.7787C783.1401,-1309.1658 783.7998,-1300.1638 784.4421,-1291.3991"/>
<polygon fill="#000000" stroke="#000000" points="787.9407,-1291.5457 785.181,-1281.3166 780.9594,-1291.034 787.9407,-1291.5457"/>
</g>
<!-- region_conversion_3 -->
<g id="node34" class="node">
<title>region_conversion_3</title>
<polygon fill="#ffffff" stroke="#000000" stroke-width="3" points="831.6602,-1180.4407 742.6602,-1180.4407 742.6602,-1142.4407 831.6602,-1142.4407 831.6602,-1180.4407"/>
<text text-anchor="middle" x="787.1602" y="-1165.2407" font-family="Times,serif" font-size="14.00" fill="#000000">Region</text>
<text text-anchor="middle" x="787.1602" y="-1150.2407" font-family="Times,serif" font-size="14.00" fill="#000000">Conversion 3</text>
</g>
<!-- isophote_table_3&#45;&gt;region_conversion_3 -->
<g id="edge38" class="edge">
<title>isophote_table_3&#45;&gt;region_conversion_3</title>
<path fill="none" stroke="#000000" d="M787.1602,-1226.949C787.1602,-1215.5608 787.1602,-1202.3202 787.1602,-1190.7353"/>
<polygon fill="#000000" stroke="#000000" points="790.6603,-1190.6623 787.1602,-1180.6623 783.6603,-1190.6623 790.6603,-1190.6623"/>
</g>
<!-- model_creation_3 -->
<g id="node36" class="node">
<title>model_creation_3</title>
<polygon fill="#ffffff" stroke="#000000" stroke-width="3" points="961.1602,-1180.4407 887.1602,-1180.4407 887.1602,-1142.4407 961.1602,-1142.4407 961.1602,-1180.4407"/>
<text text-anchor="middle" x="924.1602" y="-1165.2407" font-family="Times,serif" font-size="14.00" fill="#000000">Model</text>
<text text-anchor="middle" x="924.1602" y="-1150.2407" font-family="Times,serif" font-size="14.00" fill="#000000">Creation 3</text>
</g>
<!-- isophote_table_3&#45;&gt;model_creation_3 -->
<g id="edge40" class="edge">
<title>isophote_table_3&#45;&gt;model_creation_3</title>
<path fill="none" stroke="#000000" d="M821.0835,-1236.4274C834.1997,-1229.1264 849.1539,-1220.3191 862.1602,-1211.4407 872.9564,-1204.0709 884.2334,-1195.3262 894.1639,-1187.2268"/>
<polygon fill="#000000" stroke="#000000" points="896.6757,-1189.6912 902.1487,-1180.6195 892.213,-1184.2982 896.6757,-1189.6912"/>
</g>
<!-- isophote_regions_3 -->
<g id="node35" class="node">
<title>isophote_regions_3</title>
<ellipse fill="#ddeeff" stroke="#000000" stroke-width="3" cx="787.1602" cy="-1079.5706" rx="50.41" ry="26.7407"/>
<text text-anchor="middle" x="787.1602" y="-1083.3706" font-family="Times,serif" font-size="14.00" fill="#000000">Isophote</text>
<text text-anchor="middle" x="787.1602" y="-1068.3706" font-family="Times,serif" font-size="14.00" fill="#000000">Regions 3</text>
</g>
<!-- region_conversion_3&#45;&gt;isophote_regions_3 -->
<g id="edge39" class="edge">
<title>region_conversion_3&#45;&gt;isophote_regions_3</title>
<path fill="none" stroke="#000000" d="M787.1602,-1142.0386C787.1602,-1134.4257 787.1602,-1125.4237 787.1602,-1116.659"/>
<polygon fill="#000000" stroke="#000000" points="790.6603,-1116.5764 787.1602,-1106.5765 783.6603,-1116.5765 790.6603,-1116.5764"/>
</g>
<!-- model_image_3 -->
<g id="node37" class="node">
<title>model_image_3</title>
<ellipse fill="#ffffdd" stroke="#000000" stroke-width="3" cx="938.1602" cy="-1079.5706" rx="64.1938" ry="26.7407"/>
<text text-anchor="middle" x="938.1602" y="-1083.3706" font-family="Times,serif" font-size="14.00" fill="#000000">Model Image</text>
<text text-anchor="middle" x="938.1602" y="-1068.3706" font-family="Times,serif" font-size="14.00" fill="#000000">3</text>
</g>
<!-- model_creation_3&#45;&gt;model_image_3 -->
<g id="edge41" class="edge">
<title>model_creation_3&#45;&gt;model_image_3</title>
<path fill="none" stroke="#000000" d="M927.478,-1142.0386C928.7799,-1134.4257 930.3192,-1125.4237 931.818,-1116.659"/>
<polygon fill="#000000" stroke="#000000" points="935.3064,-1117.0234 933.5421,-1106.5765 928.4066,-1115.8434 935.3064,-1117.0234"/>
</g>
<!-- model_image_3&#45;&gt;model_subtraction_3 -->
<g id="edge42" class="edge">
<title>model_image_3&#45;&gt;model_subtraction_3</title>
<path fill="none" stroke="#000000" d="M938.1602,-1052.3091C938.1602,-1044.1325 938.1602,-1035.1336 938.1602,-1026.8408"/>
<polygon fill="#000000" stroke="#000000" points="941.6603,-1026.8292 938.1602,-1016.8293 934.6603,-1026.8293 941.6603,-1026.8292"/>
</g>
<!-- model_subtracted_image_3 -->
<g id="node39" class="node">
<title>model_subtracted_image_3</title>
<ellipse fill="#ddffdd" stroke="#000000" stroke-width="3" cx="955.1602" cy="-915.8305" rx="80.7205" ry="26.7407"/>
<text text-anchor="middle" x="955.1602" y="-919.6305" font-family="Times,serif" font-size="14.00" fill="#000000">Model Subtracted</text>
<text text-anchor="middle" x="955.1602" y="-904.6305" font-family="Times,serif" font-size="14.00" fill="#000000">Image 3</text>
</g>
<!-- model_subtraction_3&#45;&gt;model_subtracted_image_3 -->
<g id="edge44" class="edge">
<title>model_subtraction_3&#45;&gt;model_subtracted_image_3</title>
<path fill="none" stroke="#000000" d="M942.189,-978.2985C943.787,-970.6028 945.6797,-961.4877 947.5183,-952.6332"/>
<polygon fill="#000000" stroke="#000000" points="950.9463,-953.3391 949.5526,-942.8363 944.0925,-951.9159 950.9463,-953.3391"/>
</g>
</g>
</svg>
